<?xml version="1.0" encoding="utf-8"?>
<svg xmlns="http://www.w3.org/2000/svg" xmlns:xlink="http://www.w3.org/1999/xlink" version= "1.1" width="1618px" height="1000px" viewBox="-350 195 1618 1000">
<g id="layer1">
<g style="fill:rgb(0,178,230); fill-opacity:0.99607843; stroke-linejoin: miter">
<path d="M-356.14807,195.58508L454.48706,195.58559L1265.1222,195.58609Q1265.1222,695.0416,1265.1222,1194.4971Q454.48706,1194.4977,-356.14807,1194.4983Q-356.14807,695.0416,-356.14807,195.58508"/>
</g>
<g style="fill:rgb(255,252,252); fill-opacity:1.0; stroke-linejoin: miter">
<path d="M408.90894,843.5574L406.64627,856.1163Q402.15524,872.81696,393.69022,885.9934Q382.23965,901.69275,378.75732,903.77515Q373.0346,909.0415,366.31842,913.4271Q352.80212,922.1798,337.9606,925.32764Q330.53983,926.9016,322.7877,927.07446Q319.11868,928.03644,298.78586,924.4398Q279.9653,917.8356,277.21298,915.23193Q270.65445,911.36096,264.93896,906.421Q253.5081,896.54126,245.4499,882.38586Q227.74039,848.3464,235.29782,814.7202Q238.84947,797.9531,246.79169,784.3582Q250.7628,777.5607,255.83154,771.5565Q257.75803,767.99274,273.35132,755.4602Q298.96234,737.25757,332.13705,740.19434Q348.6216,742.55133,362.05872,749.62195Q368.77728,753.15735,374.734,757.871Q388.95908,770.6863,390.88992,774.6634Q395.70386,781.14465,399.26813,788.14764Q401.83133,791.323,407.14905,810.33Q410.52835,825.90045,408.90894,843.5574"/>
</g>
<g style="fill:rgb(248,196,166); fill-opacity:0.99607843; stroke-linejoin: miter">
<path d="M301.3322,900.11273L318.17908,901.9638L335.02597,903.815Q333.5918,916.8667,332.1577,929.9186Q315.31082,928.06744,298.46393,926.2164Q299.898,913.1644,301.3322,900.11273"/>
</g>
<g style="fill:rgb(255,252,252); fill-opacity:1.0; stroke-linejoin: miter">
<path d="M1139.2245,624.47534L1136.9619,637.0345Q1134.7163,645.38495,1131.4773,652.85406Q1130.4786,657.1395,1119.5248,673.2792Q1110.0663,685.57446,1096.6339,694.3452Q1083.1177,703.09796,1068.2761,706.24585Q1060.8552,707.81976,1053.1033,707.99243Q1049.4342,708.9546,1029.1014,705.35803Q1010.281,698.7539,1007.5286,696.15027Q1000.9701,692.2793,995.25464,687.3395Q983.8237,677.45953,975.7656,663.30414Q958.0561,629.26465,965.6137,595.63873Q969.16534,578.87164,977.10754,565.27673Q981.0787,558.4793,986.14746,552.47504Q988.07404,548.91125,1003.6673,536.37854Q1029.2782,518.1759,1062.4529,521.11273Q1067.0502,520.96545,1085.4656,527.2996Q1092.565,530.2457,1098.9026,534.3702Q1111.5779,542.6193,1121.2057,555.58185Q1132.1472,572.2414,1132.8358,576.1993Q1135.775,583.4629,1137.4647,591.2481Q1140.8441,606.81866,1139.2245,624.47534"/>
</g>
<g style="fill:rgb(0,0,0); fill-opacity:1.0; stroke-linejoin: miter">
<path d="M1016.3143,625.07025L1015.1419,623.54114C1009.7917,616.93463,1006.8624,611.22455,1006.0233,606.466C1005.2733,602.21466,998.529,588.9065,1002.655,580.0467C1001.81006,563.9728,1015.21326,552.3751,1015.21326,552.3751C1020.6086,545.4484,1026.555,544.5854,1041.3503,540.3733C1052.9723,537.0643,1065.6526,540.9078,1071.5237,542.5796C1090.9854,548.12146,1100.418,574.06555,1100.418,574.06555C1103.2823,580.99084,1099.4517,594.9275,1099.4631,599.8021C1099.4741,604.426,1098.2798,612.76636,1095.46,624.8305L1016.3143,625.07025 Z"/>
</g>
<g style="fill:rgb(183,107,77); fill-opacity:1.0; stroke-linejoin: miter">
<path d="M1045.947,724.5891L1045.947,724.5901L1045.947,724.59106L1045.5226,724.12646C1043.6094,722.2247,1042.4211,720.0457,1041.8447,717.61536C1041.3474,715.5183,1052.2767,718.9819,1052.7509,712.6013C1047.4797,710.8781,1037.8287,715.0134,1035.45,712.19275C1033.2238,709.55304,1019.7336,713.02997,1015.8016,703.8402L1022.3115,659.6545C1017.64294,652.23157,1015.02795,644.1808,1014.46643,635.5021C1010.2046,638.67395,1006.8543,637.1238,1004.4224,630.849C1001.39923,623.04846,1000.2232,617.27246,1001.2074,613.6043C1002.1393,610.13104,1004.01105,608.77893,1006.5307,609.3509C1008.1223,609.71216,1009.87427,612.1728,1011.76355,616.8399L1014.33704,609.2486C1013.254,603.8275,1012.8889,599.4535,1013.3842,596.1468C1013.78485,593.47205,1014.9121,590.5032,1016.6237,587.2178C1030.1301,581.9143,1040.6727,579.09296,1048.1948,578.2131C1055.6185,577.3447,1067.4836,577.5448,1083.8599,579.3525L1092.3146,594.60956L1093.3523,616.0107C1094.9409,609.9543,1096.6605,606.26404,1098.1973,604.62537C1100.5121,602.15704,1102.3215,601.81323,1103.3076,604.19543C1104.7086,607.58014,1104.1724,614.0646,1102.1633,623.3526C1100.7334,629.96326,1097.3495,633.29565,1092.2169,633.3954C1092.4749,642.1843,1090.822,648.81915,1087.2584,653.2998L1087.5095,677.3896C1087.7349,699.005,1091.7156,706.3207,1081.4541,704.4268C1071.1927,702.5328,1075.5275,697.6195,1070.2966,709.89624C1063.4103,726.0584,1071.9086,708.62726,1063.512,712.20465L1055.3812,719.5877L1045.947,724.5891L1045.947,724.5901L1045.947,724.5891 Z"/>
</g>
<g style="fill:rgb(255,0,0); fill-opacity:0.08627451; stroke-linejoin: miter">
<path d="M1022.99805,660.66815L1024.8507,662.15497Q1035.9828,671.1486,1042.2759,674.3538Q1048.2878,677.49493,1054.4266,676.9151Q1055.7767,676.7485,1057.1555,676.3785Q1057.8271,676.321,1061.3555,674.81525Q1064.1996,673.468,1067.1571,671.3103Q1071.161,668.88025,1086.7606,653.2991L1054.7507,691.1507L1022.99805,660.66815 Z"/>
</g>
<g style="fill:rgb(255,255,255); fill-opacity:0.99607843; stroke-linejoin: miter">
<path d="M1041.8901,669.4881L1041.8901,669.4881L1041.89,669.4887L1041.8901,669.4881 Z"/>
</g>
<g style="fill:rgb(255,255,255); fill-opacity:0.99607843; stroke-linejoin: miter">
<path d="M1066.4253,607.126L1066.9647,606.8506Q1069.9344,605.2898,1071.7753,604.959Q1072.3014,604.86035,1072.8219,604.83997L1073.4974,604.8513L1074.024,604.90857Q1074.5494,604.9868,1075.0695,605.13416Q1075.3319,605.17615,1076.6215,605.692Q1077.3944,606.0093,1079.1831,606.95337Q1076.9579,608.595,1075.6965,609.1854Q1074.6896,609.6821,1073.6561,609.8413L1073.0255,609.8906L1072.4916,609.8689L1071.9536,609.7926Q1070.8727,609.57605,1069.767,609.04297Q1068.1064,608.2178,1066.4253,607.126 Z"/>
</g>
<g style="fill:rgb(0,0,0); fill-opacity:0.99607843; stroke-linejoin: miter">
<path d="M1071.1005,605.00635L1070.9916,605.1537Q1070.2489,606.0918,1070.1273,606.9523Q1069.9911,607.70166,1070.4904,609.61426Q1072.0219,609.9114,1073.0443,609.8905Q1073.9293,609.89,1075.8378,609.50977Q1076.5681,608.11414,1076.5778,607.39734Q1076.6506,606.68384,1076.0859,605.2201Q1074.0011,604.76086,1073.191,604.7446Q1072.3748,604.6854,1071.1005,605.00635 Z"/>
</g>
<g style="fill:rgb(0,0,0); fill-opacity:1.0; stroke-linejoin: miter">
<path d="M1067.2308,601.2842L1067.2306,601.2849Q1069.0402,600.2742,1070.0808,599.90173Q1070.4962,599.74854,1070.9196,599.6394L1071.3457,599.5438L1071.7771,599.47595L1072.2141,599.4386Q1072.7587,599.41284,1073.3451,599.48267L1073.738,599.5382Q1074.1324,599.60315,1074.5327,599.7002Q1075.326,599.85315,1077.7913,600.77014L1067.2308,601.2842 Z"/>
</g>
<g style="fill:rgb(255,255,255); fill-opacity:0.99607843; stroke-linejoin: miter">
<path d="M1040.8866,608.5083L1040.3351,608.2582Q1037.2958,606.8375,1035.4415,606.5924Q1034.9113,606.51807,1034.3905,606.5221L1033.7162,606.56506L1033.1927,606.6465Q1032.6718,606.7494,1032.1588,606.9203Q1031.8986,606.9746,1030.6345,607.5498Q1029.8771,607.9026,1028.1342,608.92944Q1030.4333,610.4652,1031.7208,610.9961Q1032.7501,611.44556,1033.7899,611.5565L1034.422,611.5764L1034.9542,611.5298L1035.4882,611.4287Q1036.5581,611.16235,1037.6378,610.57837Q1039.2579,609.677,1040.8866,608.5083 Z"/>
</g>
<g style="fill:rgb(0,0,0); fill-opacity:0.99607843; stroke-linejoin: miter">
<path d="M1036.1178,606.6084L1036.2333,606.75024Q1037.0189,607.6532,1037.1808,608.5067Q1037.3516,609.2489,1036.9413,611.1826Q1035.4254,611.5503,1034.4031,611.5773Q1033.5192,611.61816,1031.5946,611.3268Q1030.8003,609.9663,1030.7576,609.2512Q1030.6512,608.542,1031.1475,607.05347Q1033.2089,606.49805,1034.0173,606.44385Q1034.8298,606.34705,1036.1178,606.6084 Z"/>
</g>
<g style="fill:rgb(0,0,0); fill-opacity:1.0; stroke-linejoin: miter">
<path d="M1039.81,602.70996L1039.8099,602.7101Q1037.9557,601.7853,1036.8993,601.46155Q1036.477,601.32776,1036.049,601.2384L1035.6187,601.16296L1035.1847,601.11536L1034.7465,601.0979Q1034.2013,601.09753,1033.6183,601.1947L1033.2286,601.26855Q1032.8375,601.3519,1032.4423,601.4669Q1031.6569,601.65686,1029.237,602.6875L1039.81,602.70996 Z"/>
</g>
<g style="fill:rgb(255,0,0); fill-opacity:0.07058824; stroke-linejoin: miter">
<path d="M1039.9731,649.9556L1040.7844,649.6463Q1046.9612,647.2768,1049.183,647.1714Q1050.4854,646.9951,1052.2645,647.30383Q1053.5325,647.53894,1055.4194,648.2234Q1057.6079,646.9431,1058.8839,646.4581Q1060.6561,645.8136,1061.6055,646.0145Q1062.8239,646.20557,1063.8674,646.9887Q1065.1072,647.88226,1066.9861,650.0103Q1063.054,651.8983,1062.0818,652.2174Q1057.2711,654.1366,1052.9281,653.6572Q1050.3353,653.371,1047.5713,652.5594Q1042.9849,651.14276,1039.9731,649.9556 Z"/>
</g>
<g style="fill:rgb(255,0,0); fill-opacity:0.07058824; stroke-linejoin: miter">
<path d="M1045.3739,626.6355L1049.59,630.725L1053.806,634.81445Q1057.1923,630.5425,1060.5787,626.2706Q1057.034,628.58765,1053.4891,630.90466L1045.3739,626.6355 Z"/>
</g>
<g style="fill:rgb(242,226,226); fill-opacity:0.99607843; stroke-linejoin: miter">
<path d="M1060.4608,605.17145L1060.4607,605.1717L1060.4606,605.1723L1060.4608,605.17145 Z"/>
</g>
<g style="fill:rgb(255,0,0); fill-opacity:0.07058824; stroke-linejoin: miter">
<path d="M1040.6006,667.05756L1040.6005,667.0583Q1045.1754,666.5395,1047.42,666.368Q1049.6233,666.21246,1049.9739,666.21686Q1050.7678,666.1888,1051.4666,666.1983Q1052.1624,666.2089,1052.7625,666.2569L1053.3431,666.3122Q1053.9021,666.3765,1054.3917,666.46747Q1055.633,666.6889,1057.3328,667.2966L1040.6006,667.05756 Z"/>
</g>
<g style="fill:rgb(9,1,4); fill-opacity:0.99607843; stroke-linejoin: miter">
<path d="M1097.7496,605.5841L1098.0425,604.05444Q1098.6793,600.6781,1098.6738,599.9037Q1098.762,599.11707,1098.3223,599.4806Q1097.6858,599.9811,1093.0226,611.3658L1093.8345,603.13324Q1086.09,646.1372,1081.0272,651.50964Q1078.5444,655.0468,1074.8005,655.4899Q1072.8162,656.0169,1062.7518,654.13513Q1060.3331,653.88855,1058.7596,654.68665Q1056.1202,655.5399,1054.0265,662.6266Q1050.6359,655.7755,1045.404,655.0407Q1041.6484,654.6939,1039.2117,655.5345Q1037.4216,655.8046,1031.5593,659.19916L1029.9265,659.6287Q1027.8577,659.8322,1026.1635,657.54926Q1024.0212,655.0496,1021.4847,645.10504Q1019.8179,639.19073,1013.2228,604.57745Q1011.9173,598.95575,1011.2757,601.7813Q1010.7938,604.1379,1010.6311,613.2933Q1012.1424,624.4852,1013.97327,635.25Q1018.3668,659.10284,1023.66223,668.5288Q1034.7047,689.33344,1054.0048,691.4849Q1057.9546,691.52374,1059.928,690.877L1062.5139,689.9753Q1065.0177,688.87146,1067.2109,687.1439Q1073.0944,682.83594,1079.159,671.23364Q1085.0192,659.4313,1087.2389,650.76404Q1088.707,646.10266,1097.7496,605.5841"/>
</g>
<g style="fill:rgb(9,1,4); fill-opacity:0.99607843; stroke-linejoin: miter">
<path d="M1053.8893,640.37573L1053.8893,640.3762L1036.7352,643.41473Q1035.1531,654.6164,1033.5709,665.81805Q1036.232,657.23456,1038.8936,648.6512L1053.8893,640.37573"/>
</g>
<g style="fill:rgb(9,1,4); fill-opacity:0.99607843; stroke-linejoin: miter">
<path d="M1055.5651,640.182L1055.5648,640.18225Q1064.0596,641.8912,1072.5543,643.5992L1074.5853,667.4241Q1071.1484,657.00946,1067.7112,646.5944L1055.5651,640.182"/>
</g>
<g style="fill:rgb(255,252,252); fill-opacity:1.0; stroke-linejoin: miter">
<path d="M885.36945,744.81415L883.05493,757.3675Q872.5812,794.9023,840.56903,814.4301Q808.35583,833.91595,768.79364,824.95276Q731.2586,814.479,711.7307,782.467Q705.48334,772.12683,702.02277,760.38495L699.35706,748.4167Q697.43713,736.1599,698.89343,723.2452Q704.47595,683.7408,733.82794,660.47504Q763.17993,637.2092,802.9159,640.7922Q842.42053,646.37476,865.6864,675.7266Q888.95233,705.0784,885.36945,744.81415"/>
</g>
<g style="fill:rgb(165,179,188); fill-opacity:1.0; stroke-linejoin: miter">
<path d="M770.8457,789.2207L771.20905,793.1648L771.20856,793.1655L771.19946,793.1642L771.20386,793.1647L771.19916,793.1649L771.19574,793.1654Q771.1975,793.1644,771.19916,793.1642L771.1994,793.1649L771.19916,793.1642L771.20886,793.1655L770.8457,789.2207 Z"/>
</g>
<g style="fill:rgb(0,0,0); fill-opacity:1.0; stroke-linejoin: miter">
<path d="M763.9527,761.201L762.1145,757.6652C756.566,747.0518,752.9235,738.9241,751.4143,733.2201C749.3214,725.31006,748.9464,719.77795,749.43475,716.5668C750.42523,710.0543,752.1829,704.1273,755.42645,698.9254C759.80774,691.89905,764.52515,687.24805,769.43036,684.7946C773.6088,682.7048,778.86597,681.53973,785.26373,681.4222C792.7234,676.77277,797.76575,674.4519,800.2496,673.8026C804.027,672.8153,807.82007,672.7797,811.90356,674.07965C816.29504,675.4777,822.33765,679.79535,829.88855,687.35785C838.1531,695.635,843.92413,703.14215,847.31323,709.79205C849.16907,713.4334,850.304,717.04315,850.6688,720.6462L850.7335,723.3206C850.6623,725.0944,850.3993,726.8531,849.94495,728.59686C848.35486,734.6995,846.0043,749.87115,838.9128,759.09875L842.43146,760.74585L763.9527,761.201 Z"/>
</g>
<g style="fill:rgb(255,194,157); fill-opacity:1.0; stroke-linejoin: miter">
<path d="M775.307,823.85266L772.92334,823.9097L775.304,793.9305C770.78186,787.8567,766.84143,781.03326,763.5215,773.7015C761.77026,769.83405,760.2579,761.57916,760.62384,752.08624C761.2038,737.0439,763.75903,725.87695,766.07336,718.5199C767.6713,713.4401,769.03925,710.7168,769.4806,709.98334C771.41943,706.7615,773.5815,704.10364,775.93414,701.7869C778.35516,699.4029,783.8602,696.0464,792.88055,692.13043C806.5647,707.13257,818.97546,717.5387,830.1129,723.3487L835.6146,740.99023L838.89984,754.7278L841.14075,742.33984C842.7949,745.0017,843.8734,747.527,844.3539,749.9202C845.2129,754.1989,844.64905,759.8045,842.56506,766.69666C841.32227,770.80676,839.32605,772.60657,836.696,772.13293C836.8672,777.1817,834.1904,784.8294,830.49927,791.3765L832.17395,811.63525L829.8263,828.0415C821.407,834.0917,813.05884,836.2533,804.6913,835.1558C797.2764,834.18335,790.7237,832.9606,785.1638,830.7136C780.8351,828.9642,777.56885,826.6299,775.307,823.85266 Z"/>
</g>
<g style="fill:rgb(255,0,0); fill-opacity:0.11764706; stroke-linejoin: miter">
<path d="M792.19006,762.0382L800.12915,768.1767L807.2621,760.10126L799.9199,764.3113L792.19006,762.0382"/>
</g>
<g style="fill:rgb(255,0,0); fill-opacity:0.08235294; stroke-linejoin: miter">
<path d="M772.76526,789.77124L774.1984,791.053Q781.1937,797.74365,788.2662,800.9102Q795.4543,803.993,804.5333,803.4461Q813.36786,802.7703,818.83215,799.5648Q823.8928,796.69617,829.23334,788.324L805.3552,823.26935L772.76526,789.77124"/>
</g>
<g style="fill:rgb(0,0,0); fill-opacity:1.0; stroke-linejoin: miter">
<path d="M776.4829,740.4455L776.8693,740.54596Q778.60675,740.99786,779.563,741.2Q780.1864,741.34467,781.36993,741.5304Q783.2129,741.7844,784.4362,741.68604Q785.07117,741.6438,785.6933,741.53564L786.31244,741.4136Q786.9288,741.27625,787.53625,741.0913Q789.0562,740.64026,791.72107,739.45703L776.4829,740.4455"/>
</g>
<g style="fill:rgb(0,0,0); fill-opacity:1.0; stroke-linejoin: miter">
<path d="M809.7818,738.91644L810.1683,739.0164Q812.12756,739.523,813.00745,739.7032Q813.6167,739.8355,814.66876,740.00116Q814.8928,740.04034,815.8288,740.1314Q816.1923,740.1618,816.52545,740.17474Q817.1211,740.2056,817.8764,740.1468Q818.6861,740.087,819.61127,739.8842Q820.459,739.69147,821.1868,739.45245Q822.6512,738.97894,825.01996,737.9272L809.7818,738.91644"/>
</g>
<g style="fill:rgb(0,0,0); fill-opacity:1.0; stroke-linejoin: miter">
<path d="M776.8165,726.55365L776.8165,726.5545Q780.12897,727.1264,781.86365,727.31726Q782.56,727.39685,783.2314,727.44653L783.8953,727.4872L784.5434,727.50916L785.1748,727.5111L785.7883,727.49097L786.3845,727.45056L786.9656,727.39185Q787.5387,727.32385,788.0873,727.2262Q789.4648,726.989,791.7538,726.3345L776.8165,726.55365"/>
</g>
<g style="fill:rgb(0,0,0); fill-opacity:1.0; stroke-linejoin: miter">
<path d="M808.51843,723.7276L808.51843,723.72784Q809.9909,723.98236,811.15173,724.1613Q812.1096,724.31696,813.5653,724.4915Q814.68555,724.618,815.59705,724.6612L816.24554,724.6833L816.8767,724.68536L817.4904,724.6652L818.0865,724.62494Q818.9044,724.55585,819.7893,724.3997Q821.5794,724.0616,823.4559,723.5086L808.51843,723.7276"/>
</g>
<g style="fill:rgb(255,0,0); fill-opacity:0.11764706; stroke-linejoin: miter">
<path d="M787.783,777.90094L788.40607,777.737Q794.07245,776.2576,795.57227,776.1893Q797.57294,775.96136,800.3919,776.07574Q802.7048,775.8505,803.86664,775.8338Q806.24176,775.7996,808.7548,776.06134Q811.8263,776.36237,818.0814,777.26636Q809.45966,778.4711,806.91974,778.7056Q804.6135,778.936,803.0118,779.06036Q801.2777,779.1718,799.93604,779.201Q798.3045,779.22125,797.97906,779.2021Q797.3275,779.18805,796.67633,779.1551Q795.3742,779.0892,794.0756,778.9466Q792.89557,778.81586,791.5216,778.59454Q789.0504,778.1766,787.783,777.90094"/>
</g>
<g style="fill:rgb(255,252,252); fill-opacity:1.0; stroke-linejoin: miter">
<path d="M626.96643,648.74023L624.624,661.2901Q613.952,698.80115,580.9779,718.2171Q547.79596,737.5902,506.92084,728.4752Q468.1329,717.8566,447.85376,685.75836Q441.3657,675.3905,437.74924,663.63086L434.9526,651.6477Q432.9247,639.37866,434.37982,626.4641Q439.995,586.96436,470.20908,563.799Q500.42325,540.6336,541.45746,544.3667Q582.2604,550.0994,606.3885,579.5505Q630.5165,609.0016,626.96643,648.74023"/>
</g>
<g style="fill:rgb(255,252,252); fill-opacity:1.0; stroke-linejoin: miter">
<path d="M200.76384,642.2491L198.5012,654.8081Q196.25566,663.15857,193.01663,670.6276Q192.01807,674.9131,181.06432,691.0529Q171.60579,703.3481,158.17339,712.1189Q144.65714,720.8716,129.8156,724.0195Q122.39483,725.5934,114.64272,725.7661Q110.97375,726.7283,90.640976,723.13165Q71.82041,716.52734,69.068085,713.92377Q62.509495,710.0528,56.79406,705.113Q45.363197,695.2331,37.304985,681.0777Q19.59548,647.03827,27.15295,613.41223Q30.704601,596.64526,38.646816,583.05035Q42.617916,576.2528,47.686657,570.24854Q49.613136,566.6847,65.20635,554.15204Q90.81732,535.9494,123.99198,538.8862Q128.58928,538.73895,147.00461,545.0731Q154.10413,548.01917,160.44176,552.1437Q173.11705,560.39276,182.74492,573.35535Q193.68628,590.015,194.3749,593.9728Q197.31429,601.2366,199.00394,609.0217Q202.38332,624.59235,200.76384,642.2491"/>
</g>
<g style="fill:rgb(255,252,252); fill-opacity:1.0; stroke-linejoin: miter">
<path d="M-53.074688,762.58997L-55.337322,775.1491Q-65.44223,812.72565,-95.66513,832.45984Q-126.076645,852.1533,-163.1975,843.47266Q-198.40244,833.2685,-216.53339,801.4187Q-222.33315,791.13055,-225.50401,779.42255L-227.92618,767.48267Q-229.64539,755.24945,-228.18686,742.3352Q-222.66533,702.82465,-194.91663,679.374Q-167.16792,655.9235,-129.84648,659.22723Q-92.75631,664.5305,-71.09362,693.6964Q-49.430912,722.8623,-53.074688,762.58997"/>
</g>
<g style="fill:rgb(0,0,0); fill-opacity:1.0; stroke-linejoin: miter">
<path d="M-98.58832,778.4299L-96.90207,775.10767Q-91.548065,765.2677,-88.85836,754.27435Q-87.36346,744.7907,-87.834564,742.5603Q-87.98014,738.44434,-88.94062,733.9765Q-92.14026,722.4873,-93.76347,720.0393Q-95.98229,715.3118,-98.92426,710.82056Q-104.84925,701.68195,-113.17081,695.3484Q-127.687965,684.18243,-146.78069,689.555Q-165.67961,695.3528,-175.80322,713.1993Q-182.87823,727.16156,-180.55943,747.1111Q-179.09087,763.2162,-169.58948,795.55286L-98.58832,778.4299"/>
</g>
<g style="fill:rgb(189,122,92); fill-opacity:1.0; stroke-linejoin: miter">
<path d="M-115.9899,837.861L-115.9899,837.862L-118.63974,821.28L-105.050446,803.9671C-103.14222,801.14014,-101.86745,799.05164,-101.083305,797.78656C-98.5013,793.6208,-96.661865,788.659,-95.76418,782.8041C-95.13207,778.6813,-95.10972,772.93524,-94.679756,765.6094C-94.36819,760.3007,-93.51836,755.232,-93.295715,750.3078C-93.0439,744.73834,-93.273544,741.0135,-93.602196,739.1087C-94.84183,731.92413,-98.24567,725.60846,-103.98669,720.1912L-123.11361,741.3439C-125.57514,743.94244,-127.33071,745.4823,-128.26198,746.14185C-129.53587,747.04407,-130.91884,747.7434,-132.53844,748.0687C-132.6733,748.3478,-135.57639,747.8777,-141.32549,747.4073C-142.88748,747.2795,-144.10748,747.8838,-145.00946,748.42346C-146.49432,749.3119,-148.05968,750.5557,-149.5358,752.3211C-155.67958,759.6689,-158.66072,763.2255,-158.62656,762.8689C-160.85258,764.9128,-163.03664,766.2966,-165.17827,767.02075C-167.32022,767.74506,-169.44806,768.2498,-171.56186,768.5337C-171.34296,758.2275,-171.81393,751.4364,-173.22345,748.2675C-175.11761,744.0091,-177.88664,743.57074,-180.86798,747.19635C-184.0869,751.11084,-184.57887,759.078,-182.55344,770.7203C-180.58751,782.0205,-176.81453,784.5644,-171.45398,778.3911C-170.03667,788.5222,-169.37471,798.44336,-169.35834,808.15564C-169.34761,814.5221,-170.11952,825.46484,-171.44614,830.064C-176.27867,846.8178,-167.2092,836.7253,-159.87608,847.3981L-132.74419,868.73474L-115.9899,837.861L-115.9899,837.862 Z"/>
</g>
<g style="fill:rgb(255,255,255); fill-opacity:1.0; stroke-linejoin: miter">
<path d="M-131.13835,762.39606L-131.62209,761.92883Q-133.06334,760.49646,-134.5908,759.3757Q-135.10275,759.013,-135.63388,758.7209L-136.17146,758.44946L-136.72093,758.223Q-137.44034,757.98505,-137.53166,757.9808Q-138.6476,757.6975,-140.41267,757.8427Q-141.82797,757.9501,-144.80217,758.69025Q-142.56435,760.452,-141.25429,761.2102Q-140.73132,761.51917,-140.19325,761.7764L-139.65009,762.0169Q-139.10283,762.24274,-138.5338,762.3982L-138.12497,762.499Q-137.71277,762.5895,-137.2907,762.6456Q-136.44507,762.7555,-135.56584,762.7541Q-134.21892,762.78424,-131.13835,762.39606"/>
</g>
<g style="fill:rgb(0,0,0); fill-opacity:1.0; stroke-linejoin: miter">
<path d="M-139.79277,757.6832L-139.91414,757.8594Q-140.736,759.0052,-140.92311,759.7334Q-141.11641,760.3841,-140.7526,761.55597Q-139.47206,762.3525,-138.661,762.5582Q-137.98277,762.7864,-135.97786,762.89655Q-134.97762,762.2601,-134.73747,761.8649Q-134.46922,761.4869,-134.39967,760.98016Q-134.32458,760.65955,-134.36897,759.5251Q-135.76633,758.45764,-136.69061,758.17285Q-137.71254,757.8224,-139.79277,757.6832"/>
</g>
<g style="fill:rgb(0,0,0); fill-opacity:1.0; stroke-linejoin: miter">
<path d="M-127.66624,755.3981L-128.11519,754.9739Q-129.43675,753.6748,-130.98268,752.59705Q-131.50566,752.2453,-132.07869,751.94244L-132.66792,751.65576Q-133.27078,751.381,-133.94188,751.1755Q-134.61534,750.96967,-135.35664,750.83264L-136.1125,750.7091Q-136.88397,750.6,-137.70479,750.54Q-139.74487,750.3781,-143.80002,750.4627L-127.66624,755.3981"/>
</g>
<g style="fill:rgb(255,255,255); fill-opacity:1.0; stroke-linejoin: miter">
<path d="M-110.02033,766.3541L-109.38597,766.13324Q-107.47721,765.4349,-105.62103,765.05646Q-105.00403,764.9412,-104.39901,764.8977L-103.797676,764.8767L-103.20358,764.90015Q-102.4505,764.98486,-102.365776,765.01917Q-101.23342,765.22974,-99.691895,766.1002Q-98.45155,766.78937,-96.05951,768.70667Q-98.82931,769.37067,-100.33658,769.51135Q-100.94059,769.5727,-101.53684,769.58057L-102.13078,769.5727Q-102.72275,769.54767,-103.30485,769.45233L-103.717804,769.37225Q-104.130226,769.282,-104.536804,769.15533Q-105.3508,768.9017,-106.14844,768.5327Q-107.384705,767.99567,-110.02033,766.3541"/>
</g>
<g style="fill:rgb(0,0,0); fill-opacity:1.0; stroke-linejoin: miter">
<path d="M-100.18764,765.6956L-100.1513,765.9063Q-99.884285,767.2913,-100.018486,768.03064Q-100.11593,768.7035,-100.93684,769.61475Q-102.43312,769.80225,-103.25544,769.64984Q-103.9671,769.57245,-105.83448,768.8352Q-106.47688,767.839,-106.52926,767.3786Q-106.614716,766.92285,-106.465324,766.43243Q-106.39929,766.1115,-105.88472,765.0984Q-104.16906,764.7136,-103.210266,764.84296Q-102.13545,764.9512,-100.18764,765.6956"/>
</g>
<g style="fill:rgb(0,0,0); fill-opacity:1.0; stroke-linejoin: miter">
<path d="M-110.245056,758.54456L-109.66051,758.3473Q-107.91644,757.7212,-106.06128,757.389Q-105.43879,757.288,-104.79194,757.25323L-104.13665,757.23846Q-103.47502,757.2425,-102.77845,757.33624Q-102.0815,757.4317,-101.35072,757.61725L-100.61222,757.82117Q-99.86637,758.04565,-99.09583,758.33496Q-97.17469,759.04114,-93.52706,760.8147L-110.245056,758.54456"/>
</g>
<g style="fill:rgb(140,80,53); fill-opacity:0.5529412; stroke-linejoin: miter">
<path d="M-111.59349,788.5895L-120.657394,792.2103L-127.329384,784.48566L-119.74132,789.2372L-111.59349,788.5895"/>
</g>
<g style="fill:rgb(140,80,53); fill-opacity:0.34901962; stroke-linejoin: miter">
<path d="M-118.63386,821.40796L-119.39849,822.01886C-122.86371,825.00305,-126.23467,826.78735,-129.52632,827.2734C-133.60786,827.876,-137.36427,827.23175,-140.81082,825.4971C-143.94814,823.91785,-147.15253,821.4961,-150.42175,818.2006C-154.33984,814.25085,-159.57458,808.0857,-166.09938,799.67865L-123.01865,857.7773L-115.970375,837.9363L-118.63386,821.40796 Z"/>
</g>
<g style="fill:rgb(154,58,58); fill-opacity:1.0; stroke-linejoin: miter">
<path d="M-176.67564,759.7776L-176.67567,759.7785L-176.67528,759.7776L-176.67567,759.7785"/>
</g>
<g style="fill:rgb(158,226,255); fill-opacity:0.99607843; stroke-linejoin: miter">
<path d="M-126.45969,824.5091L-126.45971,824.50934L-126.45969,824.5091L-126.45969,824.5091"/>
</g>
<g style="fill:rgb(158,226,255); fill-opacity:0.99607843; stroke-linejoin: miter">
<path d="M-125.4621,792.7455L-125.4621,792.7455L-125.4621,792.7455L-125.4621,792.7455"/>
</g>
<g style="fill:rgb(255,0,0); fill-opacity:0.99607843; stroke-linejoin: miter">
<path d="M-136.06822,796.16077L-137.4977,796.2712Q-134.6943,797.8298,-131.86293,799.1624Q-129.49397,800.19574,-129.01065,800.32556Q-128.05382,800.6645,-127.08671,800.91974Q-124.86976,801.48737,-122.699356,801.59125Q-121.8915,801.64856,-120.33969,801.6346Q-119.65509,801.6228,-118.96789,801.59Q-118.62545,801.5829,-116.90193,801.4564Q-115.521736,801.3439,-114.1389,801.2098L-120.4307,798.1944L-136.06822,796.16077"/>
</g>
<g style="fill:rgb(255,0,0); fill-opacity:0.99607843; stroke-linejoin: miter">
<path d="M-132.77309,802.0888L-132.77312,802.08923L-132.77309,802.08887L-132.77309,802.0888"/>
</g>
<g style="fill:rgb(236,122,94); fill-opacity:0.99607843; stroke-linejoin: miter">
<path d="M-151.13211,738.63873L-151.13211,738.63873L-151.13206,738.6388L-151.13211,738.63873"/>
</g>
<g style="fill:rgb(0,0,0); fill-opacity:0.99607843; stroke-linejoin: miter">
<path d="M-23.331326,906.37146L-23.331444,906.3718L-23.331581,906.37244L-23.331326,906.37146"/>
</g>
<g style="fill:rgb(255,255,255); fill-opacity:0.99607843; stroke-linejoin: miter">
<path d="M-115.30321,800.2607L-133.21747,796.70685L-137.6535,796.4178L-131.45267,802.47974L-121.385284,805.86206L-113.89711,800.98566L-115.30321,800.2607"/>
</g>
<g style="fill:rgb(255,88,171); fill-opacity:1.0; stroke-linejoin: miter">
<path d="M-113.826775,801.30273L-113.826805,801.3033Q-117.47667,797.6981,-119.366615,796.81195Q-120.29154,796.36224,-121.31687,796.2121Q-122.367035,796.0646,-123.822464,796.14996Q-125.41804,795.3234,-126.81968,795.00116Q-128.4269,794.6164,-130.78969,794.9239Q-133.10136,795.21454,-137.4358,796.26324L-124.93298,800.0921L-113.826775,801.30273"/>
</g>
<g style="fill:rgb(255,88,171); fill-opacity:1.0; stroke-linejoin: miter">
<path d="M-114.265045,801.3855L-114.727425,801.8904Q-118.19479,805.8521,-121.07578,807.22894Q-124.00438,808.61774,-127.650444,807.81274Q-131.23589,806.9732,-133.5151,804.2935Q-135.29427,802.45105,-137.44638,796.2346Q-133.38058,799.4843,-131.06406,800.8193Q-130.13924,801.3642,-129.20009,801.7981L-128.25662,802.19727Q-127.30973,802.5658,-126.3438,802.783Q-125.37789,802.99554,-124.39306,803.05634L-123.40414,803.0858Q-122.41149,803.0806,-121.40504,802.96484Q-118.89236,802.7045,-114.265045,801.3855"/>
</g>
<g style="fill:rgb(0,0,0); fill-opacity:0.99607843; stroke-linejoin: miter">
<path d="M-177.99828,696.28143L-178.05424,699.18176Q-177.43047,708.0149,-171.19202,713.8195Q-164.9069,719.62354,-155.69102,719.42847Q-146.85776,718.8046,-141.05342,712.56616Q-139.192,710.5484,-137.88719,708.0916L-136.7491,705.5483Q-135.76392,702.90686,-135.50046,699.9653Q-134.94566,690.91614,-140.4218,684.4006Q-145.89793,677.885,-154.90764,676.8745Q-163.95682,676.3197,-170.47234,681.7958Q-176.98782,687.272,-177.99828,696.28143"/>
</g>
<g style="fill:rgb(0,0,0); fill-opacity:0.99607843; stroke-linejoin: miter">
<path d="M307.8883,901.8027L307.88812,901.8042Q283.1085,890.8844,275.86902,884.85754Q268.05948,879.50006,266.8611,869.7751Q266.5295,860.06323,268.4459,853.10333Q271.40982,839.96704,277.0767,825.47034Q286.87982,800.56244,295.58377,796.3428Q299.8797,793.8155,307.14514,794.50354Q301.76508,801.72504,305.32678,800.65137Q308.005,800.40735,325.82126,790.718Q344.0679,803.76697,348.50528,803.828Q353.0186,804.6012,349.55936,791.4123Q355.69327,794.6783,361.4163,798.9757Q371.12167,805.88934,376.78738,822.2655Q384.6562,848.6713,382.4273,862.96375Q381.3266,870.58966,375.7387,876.89124Q371.59943,882.278,355.42728,890.7348Q344.12717,896.2993,331.37302,901.6579L307.8883,901.8027"/>
</g>
<g style="fill:rgb(248,196,166); fill-opacity:1.0; stroke-linejoin: miter">
<path d="M331.57773,908.64185L331.2701,908.78235Q316.50284,916.00525,301.39203,901.4339Q294.96457,894.3118,291.8848,885.1883Q290.87698,882.22345,290.2984,879.2651Q288.8053,872.0382,287.87122,864.36035Q286.735,850.9685,288.24612,845.65753Q290.02615,837.8298,293.11743,833.63586Q300.3307,822.57294,321.6346,811.7917Q334.01376,805.6882,344.44962,813.10614Q351.9608,819.044,356.54816,828.0396Q361.53333,837.9824,361.65094,843.858Q363.21655,860.68427,354.01114,882.05096Q345.21,899.4217,331.57773,908.64185 Z"/>
</g>
<g style="fill:rgb(255,255,255); fill-opacity:1.0; stroke-linejoin: miter">
<path d="M319.92963,847.3186L319.35486,846.8539Q317.6244,845.4182,315.945,844.3592Q315.3871,844.01996,314.84064,843.76495L314.29742,843.5355Q313.83643,843.3422,313.07532,843.21606Q312.09772,843.0486,310.69568,843.47784Q310.0111,843.70795,309.3418,844.0516Q308.33905,844.5766,307.34918,845.19836Q308.989,846.2587,310.04877,846.7107Q311.12872,847.14417,311.39008,847.1892Q311.8659,847.3222,312.38928,847.4112Q312.91397,847.4993,313.48666,847.5428Q313.7498,847.586,315.29037,847.59485Q316.8517,847.5843,319.92963,847.3186 Z"/>
</g>
<g style="fill:rgb(0,0,0); fill-opacity:1.0; stroke-linejoin: miter">
<path d="M314.4786,847.67285L314.6036,847.6004Q315.44586,847.158,315.71997,846.54047Q315.9854,846.0137,315.9095,844.34784Q314.65027,843.4365,313.8994,843.2685Q313.2342,843.05194,311.46887,843.1862Q310.2495,844.064,310.062,844.6988Q309.953,844.9192,309.9444,845.5462Q309.95062,846.0001,310.11786,846.8888L312.4825,847.4769L314.4786,847.67285 Z"/>
</g>
<g style="fill:rgb(0,0,0); fill-opacity:1.0; stroke-linejoin: miter">
<path d="M326.6232,864.21954L326.6232,864.2203L326.6232,864.21954L326.6232,864.2203 Z"/>
</g>
<g style="fill:rgb(0,0,0); fill-opacity:1.0; stroke-linejoin: miter">
<path d="M321.364,839.67L320.8734,839.22546Q319.41962,837.868,317.80615,836.7278Q317.26245,836.35535,316.6831,836.0317L316.0929,835.7231Q315.57996,835.45746,314.66766,835.13885Q313.66315,834.826,313.1145,834.7284L312.4328,834.6026Q311.7423,834.4892,311.02106,834.4171Q309.22668,834.22644,305.76392,834.198Q311.29938,835.26135,314.0808,836.25934Q316.70728,837.1365,321.364,839.67 Z"/>
</g>
<g style="fill:rgb(0,0,0); fill-opacity:1.0; stroke-linejoin: miter">
<path d="M309.67038,850.2237L309.67038,850.225L309.67038,850.2237L309.67038,850.225 Z"/>
</g>
<g style="fill:rgb(255,255,255); fill-opacity:1.0; stroke-linejoin: miter">
<path d="M338.9996,849.7258L339.65714,849.38806Q341.64368,848.33527,343.50378,847.64136Q344.11926,847.423,344.70636,847.2847L345.28485,847.17145Q345.77576,847.07605,346.5464,847.10785Q347.53778,847.1427,348.82275,847.84937Q349.44623,848.2137,350.0312,848.68744Q350.9057,849.4058,351.74823,850.216Q349.92627,850.9201,348.797,851.147Q347.65094,851.3503,347.38617,851.3414Q346.89325,851.3746,346.3626,851.35504Q345.83093,851.334,345.2613,851.25977Q344.99493,851.2484,343.48474,850.94257Q341.9583,850.61414,338.9996,849.7258 Z"/>
</g>
<g style="fill:rgb(0,0,0); fill-opacity:1.0; stroke-linejoin: miter">
<path d="M344.26398,851.1845L344.1563,851.08813Q343.42145,850.48334,343.27942,849.8229Q343.1269,849.2529,343.54095,847.6379Q344.9596,847.0024,345.729,846.99097Q346.42444,846.9143,348.125,847.4057Q349.13995,848.5147,349.19427,849.17377Q349.25598,849.41205,349.13647,850.02747Q349.03815,850.4702,348.69293,851.30646L346.258,851.4006L344.26398,851.1845 Z"/>
</g>
<g style="fill:rgb(0,0,0); fill-opacity:1.0; stroke-linejoin: miter">
<path d="M339.15546,841.94476L339.72662,841.60986Q341.4263,840.5784,343.2385,839.7907Q343.8467,839.5372,344.48013,839.33844L345.12112,839.15625Q345.67728,839.0014,346.63553,838.8753Q347.68253,838.7738,348.23953,838.7904L348.9324,838.8063Q349.63187,838.8359,350.35233,838.9122Q352.14825,839.09204,355.54376,839.7699Q349.9075,839.68164,346.98148,840.0921Q344.23087,840.41455,339.15546,841.94476 Z"/>
</g>
<g style="fill:rgb(0,0,0); fill-opacity:1.0; stroke-linejoin: miter">
<path d="M348.45062,854.6627L348.45068,854.6637L348.45062,854.6627L348.45068,854.6637 Z"/>
</g>
<g style="fill:rgb(255,61,0); fill-opacity:1.0; stroke-linejoin: miter">
<path d="M341.2684,877.906L340.59293,877.6011Q337.50327,876.01404,333.5087,875.0367Q332.15225,874.9615,331.3632,875.08685Q329.59048,875.50464,329.0198,875.8081Q327.32687,874.5161,323.6544,874.37695Q320.62308,874.2525,310.12125,874.9886Q314.36234,879.0487,319.5231,884.607Q320.74973,885.69806,322.40884,886.55084Q325.6,887.7963,327.8054,887.73254Q329.3041,887.73267,330.4847,887.4343Q331.71915,887.11273,332.46237,886.7461Q334.4092,885.8276,336.3879,883.89276Q339.3867,880.7185,341.2684,877.906 Z"/>
</g>
<g style="fill:rgb(255,255,255); fill-opacity:1.0; stroke-linejoin: miter">
<path d="M338.79605,878.172L337.9708,878.20306Q331.67905,878.491,328.05136,878.1785Q326.74008,878.0599,325.4927,877.88257Q321.12094,877.20935,318.76508,876.9076Q317.3118,876.71106,312.5408,876.1406Q318.99576,881.54736,321.65506,882.72314Q323.5317,883.6517,324.98758,883.9344Q326.53745,884.258,327.99063,884.19385Q331.10568,884.00165,333.44077,882.6995Q336.11215,881.22473,338.79605,878.172 Z"/>
</g>
<g style="fill:rgb(255,72,0); fill-opacity:0.16078432; stroke-linejoin: miter">
<path d="M338.9932,868.2358L338.99332,868.2378L332.4257,872.02484L323.89896,865.8552L332.52933,870.39655L338.9932,868.2358 Z"/>
</g>
<g style="fill:rgb(255,72,0); fill-opacity:1.0; stroke-linejoin: miter">
<path d="M324.96103,874.15814L324.96085,874.15894L324.96103,874.15814L324.96085,874.15894 Z"/>
</g>
<g style="fill:rgb(0,0,0); fill-opacity:0.99607843; stroke-linejoin: miter">
<path d="M308.69354,805.7419L307.58624,805.6942Q301.67975,805.58435,297.78085,804.2084Q293.3646,802.2464,292.212,799.28357Q290.18292,793.9521,290.7917,789.3588Q291.66132,782.86804,292.39493,781.4762Q293.2803,778.79706,294.66446,776.2372Q298.8633,768.32855,307.64352,764.1063Q319.84558,758.67975,332.31573,759.19904Q347.69434,759.4442,355.20215,770.2641Q357.7326,773.7845,359.9615,779.0869Q362.42953,785.62756,362.61337,787.0038Q364.02158,792.4361,363.96017,796.9807Q363.44345,802.1628,362.75516,802.5652Q360.40897,806.4298,354.84402,806.41327Q350.16068,806.57404,340.70456,804.52344L308.69354,805.7419"/>
</g>
<g style="fill:rgb(255,0,0); fill-opacity:0.08627451; stroke-linejoin: miter">
<path d="M305.30627,904.8556L306.35278,905.4756Q313.07617,909.67444,317.94745,910.61597Q322.60263,911.4214,329.83224,909.4193L315.21524,934.7682L305.30627,904.8556"/>
</g>
<g style="fill:rgb(255,0,0); fill-opacity:0.99607843; stroke-linejoin: miter">
<path d="M315.3746,936.6818L316.1512,927.64923L316.928,918.61707L315.3746,936.6818"/>
</g>
<g style="fill:rgb(0,0,0); fill-opacity:1.0; stroke-linejoin: miter">
<path d="M66.133385,645.1176L65.823494,642.29456C62.837566,618.8462,63.075657,603.7589,65.82389,596.73883C67.82464,591.62805,70.88689,586.0677,75.72579,580.31396C80.66122,574.4458,85.96171,569.98865,91.61891,566.9166C95.31032,564.9121,99.76589,563.96643,104.99868,564.2339C109.66423,564.47253,120.3731,562.6883,128.48857,566.0097C143.21936,572.0386,143.52681,572.9796,147.34433,577.3266C155.2605,586.3402,161.5741,591.183,161.85852,595.30396C162.6793,597.58435,162.06895,603.94116,160.07364,614.38324C158.7363,621.3829,154.65643,637.00037,147.7876,661.2265L66.133385,645.1176 Z"/>
</g>
<g style="fill:rgb(255,184,157); fill-opacity:1.0; stroke-linejoin: miter">
<path d="M106.24197,726.2542L72.93123,714.9341L76.675735,689.6195C73.00154,685.0126,70.8788,681.06647,69.98146,677.86694C69.11333,674.77155,68.59047,669.2844,68.73578,661.30896C66.36555,662.824,64.53466,661.0262,63.093052,655.9578C61.584084,650.65265,60.56967,645.0615,60.96511,639.17584C61.36431,633.2344,63.148796,630.25464,65.555214,630.1692C67.005226,630.5399,68.34866,634.4631,69.58558,641.93823C72.55703,628.16235,74.72755,618.69006,76.01753,613.5011C77.21134,608.6989,78.775055,604.61426,80.846825,601.30304C82.932556,597.96967,85.850746,596.6406,89.54308,597.2792L93.311905,598.179C102.69108,601.65173,108.00415,603.3818,109.25107,603.3693C110.074905,603.6454,112.64113,603.9291,116.94981,604.22003L133.26689,604.286C135.48534,604.1943,137.78362,604.95953,140.172,606.5665C141.2061,607.2624,142.35728,608.8485,142.95175,611.51733C145.14568,621.3669,145.67357,627.0061,145.74843,628.2999C146.00847,632.79193,145.6357,641.4903,144.09143,654.4371C146.79901,648.96466,149.82045,645.26117,153.15578,643.327C155.31789,642.7411,155.50078,645.3366,153.64908,651.0957C151.29309,658.4232,149.10818,663.71893,147.18098,667.01874C145.00677,670.7417,142.70543,673.1166,140.24542,674.1249L133.82567,687.7197L132.3936,720.9634L106.24197,726.2542 Z"/>
</g>
<g style="fill:rgb(244,67,54); fill-opacity:0.12941177; stroke-linejoin: miter">
<path d="M123.21424,695.7671L121.351204,696.65344Q114.734695,699.8004,113.70796,700.06146Q111.34542,700.9676,109.22996,701.56665Q105.442215,702.7761,100.86961,702.7135Q97.2402,702.50525,92.27009,700.38983Q91.52561,700.14526,87.82347,698.0306Q85.55351,696.7009,82.49746,694.7536L102.52729,717.75507L123.21424,695.7671"/>
</g>
<g style="fill:rgb(255,255,255); fill-opacity:0.99607843; stroke-linejoin: miter">
<path d="M133.64595,670.10443L133.64575,670.1051Q161.66911,622.24164,133.64595,670.10443"/>
</g>
<g style="fill:rgb(255,255,255); fill-opacity:0.99607843; stroke-linejoin: miter">
<path d="M132.32672,670.0319L132.32654,670.03253Q161.09512,625.5858,132.32672,670.0319"/>
</g>
<g style="fill:rgb(255,255,255); fill-opacity:0.99607843; stroke-linejoin: miter">
<path d="M121.321915,634.9795L121.8828,634.82904Q124.97963,633.95953,126.77199,634.0172Q127.285164,634.02997,127.77729,634.11487L128.40831,634.2608L128.89093,634.4199Q129.36781,634.59827,129.82611,634.8403Q130.06374,634.9322,131.16975,635.67395Q131.83115,636.1259,133.3196,637.36896Q130.90465,638.4632,129.60385,638.7645Q128.56013,639.029,127.55939,638.9714L126.958275,638.8916L126.46197,638.76434L125.97269,638.5854Q125.00226,638.1662,124.07207,637.4452Q122.67998,636.3396,121.321915,634.9795"/>
</g>
<g style="fill:rgb(84,69,69); fill-opacity:1.0; stroke-linejoin: miter">
<path d="M126.129715,633.9268L125.9983,634.0432Q125.11406,634.77454,124.82799,635.5566Q124.550446,636.23236,124.636215,638.12555Q126.01306,638.71027,126.97579,638.8953Q127.80578,639.0719,129.67177,639.0968Q130.63535,637.93414,130.7878,637.2641Q130.99884,636.6098,130.76215,635.12415Q128.89882,634.27686,128.14241,634.09906Q127.389,633.8806,126.129715,633.9268"/>
</g>
<g style="fill:rgb(0,0,0); fill-opacity:1.0; stroke-linejoin: miter">
<path d="M123.24543,629.66266L123.24521,629.6633Q125.14402,629.0774,126.19415,628.9363Q126.614334,628.8757,127.03329,628.8579L127.45204,628.85364L127.87014,628.87616L128.28741,628.92834Q128.80325,629.0131,129.33923,629.19604L129.69635,629.3267Q130.05327,629.4665,130.40932,629.63745Q131.12267,629.93964,133.25081,631.29236L123.24543,629.66266"/>
</g>
<g style="fill:rgb(0,0,0); fill-opacity:0.99607843; stroke-linejoin: miter">
<path d="M134.49251,602.96466L134.49245,602.9648L134.49251,602.9649L134.49251,602.96466"/>
</g>
<g style="fill:rgb(255,255,255); fill-opacity:0.99607843; stroke-linejoin: miter">
<path d="M97.097855,631.1691L96.6307,630.82404Q94.06488,628.88434,92.37519,628.28375Q91.89279,628.108,91.40356,628.00757L90.76286,627.913L90.255646,627.8849Q89.74647,627.877,89.23152,627.9349Q88.976616,627.9337,87.676384,628.2204Q86.89549,628.3999,85.05586,629.01404Q86.904884,630.9141,88.005875,631.6696Q88.88094,632.29675,89.83377,632.6085L90.42251,632.75354L90.93101,632.81635L91.45181,632.82837Q92.50835,632.79224,93.63744,632.4606Q95.33707,631.93933,97.097855,631.1691"/>
</g>
<g style="fill:rgb(84,69,69); fill-opacity:1.0; stroke-linejoin: miter">
<path d="M93.0061,628.4339L93.08606,628.5902Q93.64231,629.5939,93.62313,630.42645Q93.63483,631.15686,92.863884,632.888Q91.36864,632.9299,90.40479,632.7507Q89.56753,632.612,87.82133,631.9543Q87.34861,630.5198,87.45134,629.8405Q87.493645,629.15424,88.2565,627.8575Q90.30046,627.7488,91.06946,627.85956Q91.85055,627.9313,93.0061,628.4339"/>
</g>
<g style="fill:rgb(0,0,0); fill-opacity:1.0; stroke-linejoin: miter">
<path d="M97.24796,625.51666L97.247986,625.5168Q95.69413,624.27893,94.767944,623.7643Q94.398895,623.5544,94.01527,623.3848L93.62703,623.228L93.22955,623.0965L92.822,622.99274Q92.31083,622.88336,91.74505,622.8579L91.36491,622.84924Q90.98156,622.8492,90.587746,622.8782Q89.81343,622.89905,87.33816,623.3816L97.24796,625.51666"/>
</g>
<g style="fill:rgb(255,0,0); fill-opacity:0.07058824; stroke-linejoin: miter">
<path d="M90.52177,671.686L91.324905,671.4667Q97.440956,669.78503,99.570755,669.8929Q100.83001,669.84686,102.49877,670.3085Q103.68645,670.65173,105.42291,671.48193Q107.631355,670.4652,108.89449,670.1225Q110.64608,669.67365,111.532906,669.9545Q112.67763,670.251,113.59961,671.09607Q114.69881,672.06464,116.29175,674.2716Q112.36288,675.70435,111.405304,675.91754Q106.63512,677.2978,102.53605,676.43304Q100.08878,675.91656,97.52733,674.883Q93.28416,673.10095,90.52177,671.686"/>
</g>
<g style="fill:rgb(255,0,0); fill-opacity:0.07058824; stroke-linejoin: miter">
<path d="M99.7895,650.28125L103.4289,654.5787L107.06835,658.8763Q110.70025,655.1178,114.3321,651.35925Q110.73222,653.2375,107.13245,655.11597L99.7895,650.28125"/>
</g>
<g style="fill:rgb(0,0,0); fill-opacity:1.0; stroke-linejoin: miter">
<path d="M103.985664,664.7187L103.00985,667.86066L86.09276,670.5692Q86.2248,667.8642,86.86189,665.6328Q87.31779,664.1744,88.3723,663.2775Q89.5279,662.38666,91.177414,662.3135Q91.419754,662.2561,93.01631,662.32935Q94.33969,662.43134,95.85868,662.7168Q98.07628,663.08765,103.985664,664.7187"/>
</g>
<g style="fill:rgb(242,226,226); fill-opacity:0.99607843; stroke-linejoin: miter">
<path d="M116.119965,631.95435L116.119965,631.95435L116.119934,631.95435L116.119965,631.95435"/>
</g>
<g style="fill:rgb(0,0,0); fill-opacity:1.0; stroke-linejoin: miter">
<path d="M106.614944,664.2218L106.88449,667.50073L122.808105,673.8219Q123.10339,671.64935,123.1184,671.24097Q123.23156,669.1762,123.13052,668.8364Q123.00262,667.31384,122.168144,666.20905Q121.30642,665.1094,119.49481,664.616Q117.505486,664.0687,114.3463,664.01636Q111.81639,663.9529,106.614944,664.2218"/>
</g>
<g style="fill:rgb(84,69,69); fill-opacity:0.99607843; stroke-linejoin: miter">
<path d="M106.085045,725.60236L106.08497,725.60266L106.084816,725.60284L106.085045,725.60236"/>
</g>
<g style="fill:rgb(0,0,0); fill-opacity:1.0; stroke-linejoin: miter">
<path d="M492.73773,740.2546L462.24713,730.5595C460.1517,687.5273,464.15552,689.27655,464.8592,672.83936C465.80664,650.70667,468.2496,634.80743,471.21402,624.84467C472.57953,620.2551,474.92618,612.8819,479.6251,603.17194C483.71033,594.7302,488.6419,587.5771,493.9173,581.4318C503.29895,570.5037,513.5173,565.67865,524.6863,566.7647C534.0383,567.674,539.32965,568.5773,540.53534,569.7407C548.69226,572.3738,554.6989,575.0659,558.3439,578.0789C565.2672,583.8017,570.67584,593.1035,574.09155,605.91846C575.2298,610.1892,574.7003,614.0529,573.25745,617.36664C571.5809,621.2175,568.0258,625.525,562.5384,630.26575L546.05524,690.2141L571.6169,738.47876L548.1288,745.6078L518.9686,687.3379L541.3038,642.4062C528.98883,643.3942,520.27734,645.1943,514.9581,647.2971C508.4306,649.87775,503.80563,654.3548,501.43906,661.29834C500.63678,663.6521,500.34387,666.3147,499.8915,669.16797C499.69553,670.4044,499.29507,675.13074,499.83908,683.42755C500.53046,693.9705,502.282,705.16046,504.44577,717.0468L519.13855,742.8441 Z"/>
</g>
<g style="fill:rgb(255,0,0); fill-opacity:0.99607843; stroke-linejoin: miter">
<path d="M497.09842,684.29395L499.218,684.9906Q508.76608,688.14197,513.638,689.127Q517.13055,689.97394,522.0014,690.15607Q529.38983,690.49414,540.42816,684.5497L548.4815,720.88574Q535.3907,723.93994,527.40485,723.61633Q518.36707,723.4367,501.3378,719.93524L497.09842,684.29395"/>
</g>
<g style="fill:rgb(255,22,0); fill-opacity:1.0; stroke-linejoin: miter">
<path d="M481.72107,703.7747L481.721,703.7747Q435.94083,666.96704,481.72107,703.7747"/>
</g>
<g style="fill:rgb(75,45,35); fill-opacity:1.0; stroke-linejoin: miter">
<path d="M521.5479,688.3478Q520.8127,689.80225,520.28,691.0598Q520.8127,689.80225,521.54584,688.3476 Z"/>
</g>
<g style="fill:rgb(0,0,0); fill-opacity:1.0; stroke-linejoin: miter">
<path d="M567.5567,640.04065L567.5567,640.0407L562.9057,664.54694Q564.3562,650.9909,565.8067,637.435L567.5567,640.04065"/>
</g>
<g style="fill:rgb(0,0,0); fill-opacity:1.0; stroke-linejoin: miter">
<path d="M558.1727,663.8101L558.1727,663.8104Q555.2416,685.4411,552.31036,707.0719Q553.48846,687.18835,554.66656,667.3046L558.1727,663.8101"/>
</g>
<g style="fill:rgb(0,0,0); fill-opacity:1.0; stroke-linejoin: miter">
<path d="M552.6671,671.68286L552.6671,671.68317L550.36273,708.0425Q550.0799,688.9704,549.7969,669.8982L552.6671,671.68286"/>
</g>
<g style="fill:rgb(255,189,156); fill-opacity:1.0; stroke-linejoin: miter">
<path d="M514.5626,732.8276L543.41,723.9933C546.9074,715.35406,527.8234,676.8752,533.6374,671.3321C545.3532,676.9715,552.1317,678.45264,554.2907,676.0486C554.97284,675.289,555.65466,674.3742,556.04333,673.00256L557.28815,665.55725C557.6632,664.1531,558.29114,663.1661,559.17206,662.59625L560.6559,655.7604L564.7297,651.8265L567.10565,644.62024C570.5202,643.53876,572.57654,642.2349,573.41223,640.78564C573.89136,639.955,573.8122,638.5301,573.06995,636.41766C572.6026,635.08734,570.86566,631.8734,567.8295,626.7863C569.69324,625.0019,570.7291,622.99225,570.9371,620.7575C571.0594,620.7093,570.44574,618.1268,570.51465,612.9639C570.58856,607.41656,571.2257,604.602,571.0095,604.441C570.9139,602.72546,570.0674,600.1622,569.0952,596.5623C568.3067,593.6427,567.1999,592.2483,565.1722,592.03C560.442,591.52106,555.89746,591.80835,551.4115,593.1756C550.32825,593.5057,547.81226,595.246,543.65314,598.249C542.1769,599.31494,541.0799,599.66144,540.672,599.8392C539.62537,600.2952,535.76385,601.32324,529.0637,602.98425C527.3674,603.40485,525.96075,604.1263,524.8188,604.9707C523.6904,605.8051,522.7947,606.80743,522.0938,607.9273L518.8374,614.14453C518.166,615.33685,517.4414,616.4367,516.6522,617.43463C514.99774,619.52716,513.63776,620.73016,512.5649,620.9772C512.1696,621.06824,511.84344,620.8831,511.60144,620.49786C510.71112,617.184,509.6,614.80493,508.3053,613.32745C504.34573,608.80853,501.6434,606.228,500.22314,605.49316C496.91168,603.7798,493.38138,604.14484,490.37473,607.49927C487.61963,610.5732,487.9602,616.975,490.29034,626.05145C490.69485,627.627,492.1778,630.5858,494.97375,634.874C495.15775,637.66614,495.73355,639.5335,496.40793,640.6687C497.19604,641.99554,498.71594,642.41675,501.27545,641.76465C499.85635,658.55597,499.17108,669.5366,499.0629,674.7043C498.94254,680.44977,499.28497,685.8377,500.24686,690.8717L503.95895,726.04315 Z"/>
</g>
<g style="fill:rgb(255,255,255); fill-opacity:1.0; stroke-linejoin: miter">
<path d="M549.4687,653.61896L549.641,653.70856Q549.632,653.70233,549.6185,653.6943L549.6039,653.68604Q549.58813,653.6772,549.56793,653.6669Q549.5477,653.65656,549.5232,653.6446Q549.49854,653.63257,549.4694,653.61896L549.4686,653.6192"/>
</g>
<g style="fill:rgb(255,255,255); fill-opacity:1.0; stroke-linejoin: miter">
<path d="M552.0061,649.75745L546.5074,650.4812L546.50757,650.48145Q546.507,650.4812,546.50653,650.48114L546.0678,650.53906L546.0678,650.5393L546.0678,650.53906L545.34875,650.6338L553.6809,657.3103L555.06616,657.4419L555.6762,655.22296L560.23816,657.4468Q560.257,657.48,560.2754,657.5131L560.6559,655.7604L561.54144,654.9053Q561.5924,654.99023,561.6418,655.078L562.37964,654.32495L562.2623,654.2092L561.57825,653.5343L559.33167,652.64777L559.33075,652.6478L557.2769,651.83704Q557.27594,651.8368,557.2749,651.8365L557.2757,651.8368L556.6727,651.59863L552.0061,649.75745 Z"/>
</g>
<g style="fill:rgb(255,255,255); fill-opacity:1.0; stroke-linejoin: miter">
<path d="M560.2753,657.51416L560.1853,657.92816L560.50684,657.95874Q560.4029,657.7421,560.27625,657.51434 Z"/>
</g>
<g style="fill:rgb(255,0,0); fill-opacity:1.0; stroke-linejoin: miter">
<path d="M545.32104,650.3971L546.6328,650.09485Q554.4197,648.3211,556.11414,648.149Q558.2982,647.8555,558.8619,647.89105Q559.8728,647.87964,560.5766,648.0931Q561.2353,648.3073,561.56824,648.6728Q562.04224,649.23303,562.2416,649.92096L564.67334,651.98346L561.6418,655.078Q560.8751,653.7154,559.9752,653.0584Q559.00964,652.4155,558.6726,652.3174Q558.1471,652.08966,557.46936,651.89404Q554.72577,651.04224,545.32104,650.3971"/>
</g>
<g style="fill:rgb(255,0,0); fill-opacity:1.0; stroke-linejoin: miter">
<path d="M544.42596,649.7388L560.23816,657.4468Q561.30273,659.32336,560.88995,660.4616Q560.6317,661.49927,558.1674,663.70807Q554.5734,661.91425,552.23486,659.44586Q549.99316,657.25793,544.42596,649.7388"/>
</g>
<g style="fill:rgb(255,0,0); fill-opacity:0.10980392; stroke-linejoin: miter">
<path d="M559.70795,642.2534L559.4989,642.0728Q557.76794,640.61096,557.1059,639.68463Q556.36536,638.6881,556.5769,637.79694L556.71344,637.44116L556.931,637.08856Q557.2845,636.60077,557.99744,636.047Q558.656,635.44635,561.94965,633.6739Q557.2761,635.3738,556.3729,635.9616Q555.3828,636.5008,554.9193,636.9827L554.64044,637.3322L554.4828,637.6868Q554.2473,638.4792,555.4596,639.559Q556.48615,640.4819,559.70795,642.2534"/>
</g>
<g style="fill:rgb(0,0,0); fill-opacity:0.1882353; stroke-linejoin: miter">
<path d="M563.7021,641.78723L563.52106,641.7095Q563.0673,641.5184,562.7617,641.36694Q562.2779,641.1153,562.2292,641.05005Q562.0874,640.93585,562.0906,640.84406Q562.09216,640.79816,562.13007,640.75775L562.177,640.71875Q562.233,640.6813,562.3252,640.6492Q562.57635,640.5627,563.13745,640.50824Q563.77997,640.4493,564.5231,640.46375Q565.301,640.4804,565.85645,640.5713L566.17084,640.63416L566.4323,640.7123L566.4858,640.73334Q566.55896,640.7537,566.75006,640.8934Q566.8163,640.95135,566.8534,641.0157Q566.9275,641.1442,566.8849,641.2976Q566.81366,641.52325,566.60016,641.7057Q566.23596,641.9678,566.08594,642.0033Q565.71326,642.15735,565.1364,642.1159Q564.8575,642.0912,564.58026,642.027Q564.3799,641.9906,563.7021,641.78723"/>
</g>
<g style="fill:rgb(0,0,0); fill-opacity:1.0; stroke-linejoin: miter">
<path d="M562.2038,615.9051L558.9865,617.2906Q556.63153,613.9384,554.2559,612.50165Q552.0941,611.0221,545.3743,608.54156Q550.0385,608.826,552.318,609.2105Q553.237,609.359,554.0832,609.56055L554.9066,609.7785Q555.7097,610.0114,556.41235,610.31726Q557.11206,610.6251,557.7116,611.00574Q558.0603,611.1606,559.3302,612.27856Q560.5569,613.42816,562.2038,615.9051"/>
</g>
<g style="fill:rgb(0,0,0); fill-opacity:1.0; stroke-linejoin: miter">
<path d="M567.2639,621.1819L567.2639,621.18207L570.44617,622.881Q570.9323,621.6706,571.0539,620.81866Q571.1378,620.1239,571.05743,619.1511L568.1757,618.7901L567.2639,621.1819"/>
</g>
<g style="fill:rgb(255,255,255); fill-opacity:1.0; stroke-linejoin: miter">
<path d="M553.23474,619.3803L553.1147,619.8088Q552.78516,621.147,552.1815,622.00757Q551.97,622.27673,551.6978,622.4398L551.4065,622.5695L551.0769,622.63306L550.7056,622.6235L550.28986,622.5365L549.8322,622.37665L549.3365,622.15027Q548.8218,621.89075,548.2461,621.52527Q546.8222,620.63776,543.79,618.2227Q546.61176,617.09503,547.9623,616.7464Q548.5076,616.6004,549.0022,616.5194L549.4808,616.45874Q549.94525,616.4163,550.3398,616.46313Q551.1996,616.53845,551.9475,617.2793Q552.60815,617.9882,553.23474,619.3803"/>
</g>
<g style="fill:rgb(0,0,0); fill-opacity:1.0; stroke-linejoin: miter">
<path d="M546.55493,620.3165L546.5849,620.0315Q546.6571,619.1661,546.88873,618.39105Q547.05054,617.87866,547.37195,617.4564Q547.53516,617.24664,547.74994,617.0671L547.9752,616.8966Q548.2123,616.73456,548.484,616.6126Q549.0333,616.36554,549.6465,616.31915Q550.9344,616.24066,551.8325,617.122Q552.8191,618.1218,552.7421,619.3402Q552.71216,619.6318,552.60596,619.9157L552.48413,620.198Q552.34515,620.4786,552.1506,620.75354Q551.6782,621.4424,550.4013,622.63885Q549.4367,622.4318,548.7801,622.017Q548.1546,621.6578,546.55493,620.3165"/>
</g>
<g style="fill:rgb(0,0,0); fill-opacity:1.0; stroke-linejoin: miter">
<path d="M579.5824,610.4709L579.58234,610.47095L579.5823,610.47095L579.5824,610.4709"/>
</g>
<g style="fill:rgb(255,22,0); fill-opacity:0.101960786; stroke-linejoin: miter">
<path d="M533.57074,671.3756L532.50256,670.66113Q520.8602,663.3939,510.47223,652.8381L508.86523,706.0348L517.8129,694.9216L519.22766,693.2632Q519.585,692.87787,519.4941,693.1327Q520.94525,688.7048,525.7481,680.985Q528.1133,676.9792,533.57074,671.3756"/>
</g>
<g style="fill:rgb(255,22,0); fill-opacity:1.0; stroke-linejoin: miter">
<path d="M523.96185,690.16394L523.96185,690.16394L523.9618,690.16425L523.96185,690.16394"/>
</g>
<g style="fill:rgb(255,189,156); fill-opacity:1.0; stroke-linejoin: miter">
<path d="M524.2531,781.8297L524.2531,781.82983L524.2531,781.82983L524.2531,781.8297"/>
</g>
<g style="fill:rgb(255,0,0); fill-opacity:0.99607843; stroke-linejoin: miter">
<path d="M535.72845,687.78314L534.78345,688.6291Q528.8845,694.50977,522.1445,694.3951Q520.03253,694.56915,513.5877,692.5841Q508.90906,691.04803,499.52078,686.7593L502.85013,719.5495Q519.6317,724.058,526.99646,724.4453Q534.5445,725.1659,547.58875,722.8729L535.72845,687.78314"/>
</g>
<g style="fill:rgb(60,70,79); fill-opacity:1.0; stroke-linejoin: miter">
<path d="M121.99185,757.27673L121.991,757.2775C54.78053,762.2861,-3.7658067,711.86115,-8.774871,644.64984L-8.775626,644.6501C-13.784046,577.43896,36.640545,518.8926,103.85109,513.88293L103.85037,513.8829C171.06195,508.8734,229.6088,559.2979,234.61809,626.5086L234.61728,626.5093C239.62778,693.72015,189.20338,752.26666,121.99185,757.27673L121.991,757.2775 M119.25752,720.5878L119.25654,720.5883C166.20665,717.08875,201.42932,676.19226,197.92989,629.2433L197.92894,629.244C194.4305,582.2947,153.53427,547.0715,106.58566,550.5709L106.584946,550.5713C59.63695,554.07043,24.414244,594.96655,27.913054,641.9154L27.912395,641.91565C31.412134,688.86395,72.30844,724.0871,119.25752,720.5878 Z"/>
</g>
<g style="fill:rgb(60,70,79); fill-opacity:1.0; stroke-linejoin: miter">
<path d="M8.974409,756.3734L8.973407,756.37494C-3.6160867,745.53894,-14.528821,732.7406,-23.264606,718.3984L10.5865345,697.7796C17.14427,708.5457,25.348291,718.17206,34.8279,726.3301 Z M-45.988213,647.5681L-45.98903,647.568C-45.992367,647.5147,-45.99618,647.4621,-45.999126,647.42395L-45.999653,647.4239L-45.999126,647.42395L-45.99975,647.4255C-47.270042,630.36896,-45.80336,613.7041,-41.955013,597.8808L-3.4418025,607.24786C-6.323056,619.0935,-7.432288,631.60504,-6.4728136,644.47784L-6.4734945,644.4782L-6.4725676,644.4799L-6.4735193,644.4784C-6.4753046,644.44073,-6.4613447,644.6286,-6.4653845,644.575 Z M-7.960599,531.736L-7.961108,531.7374C2.863949,519.13586,15.65262,508.213,29.986755,499.46472L50.63437,533.29785C39.87396,539.86475,30.254648,548.07635,22.104782,557.5638 Z M100.801025,476.67993L100.800095,476.67993C100.89001,476.67303,100.98771,476.66565,101.07717,476.65887L101.07621,476.65936C118.08397,475.39142,134.70343,476.84564,150.48637,480.67017L141.1528,519.1908C129.33687,516.32837,116.859795,515.22766,104.02286,516.185L104.02213,516.1862C103.93371,516.1917,103.90674,516.1935,103.81774,516.2004 Z M216.66144,514.6078L216.66061,514.6093C229.27106,525.42163,240.20567,538.2015,248.96532,552.5274L215.14987,573.2039C208.57419,562.44965,200.35352,552.8371,190.85956,544.6946 Z M271.81113,623.3216L271.8103,623.3217C271.82065,623.445,271.8335,623.61304,271.84235,623.73376L271.84134,623.7338C273.1065,640.6925,271.66357,657.26764,267.86386,673.0111L229.33421,663.71C232.17896,651.9248,233.27016,639.4809,232.31583,626.67975L232.31514,626.6799C232.30843,626.57837,232.30011,626.4693,232.29243,626.3702 Z M233.98221,739.2163L233.98138,739.21783C223.17868,751.83563,210.40805,762.7813,196.08986,771.55304L175.38353,737.755C186.1319,731.1698,195.73837,722.94055,203.87257,713.43896 Z M125.31252,794.4601L125.31185,794.46C125.13776,794.4736,124.94523,794.488,124.76657,794.5016L124.76568,794.5015C107.66371,795.7759,90.95235,794.2978,75.09035,790.4255L84.49046,751.9196C96.365326,754.81836,108.91133,755.9365,121.82043,754.9744L121.81959,754.97455C121.95273,754.9647,122.1003,754.9534,122.236496,754.943 Z"/>
</g>
<g style="fill:rgb(0,0,0); fill-opacity:1.0; stroke-linejoin: miter">
<path d="M70.369934,894.8346L70.36988,894.8351L70.36981,894.8357L70.369934,894.8346"/>
</g>
<g style="fill:rgb(0,0,0); fill-opacity:1.0; stroke-linejoin: miter">
<path d="M-204.40286,709.40155L-204.40308,709.4018L-204.40286,709.40155L-204.40308,709.4018L-204.40286,709.40155 Z"/>
</g>
<g style="fill:rgb(0,0,0); fill-opacity:1.0; stroke-linejoin: miter">
<path d="M-204.40286,709.40155L-204.40308,709.4018L-204.40286,709.40155L-204.40308,709.4018L-204.40286,709.40155 Z"/>
</g>
<g style="fill:rgb(60,70,79); fill-opacity:1.0; stroke-linejoin: miter">
<path d="M-29.557673,794.6446L-29.557608,794.644C-6.7479873,731.224,-39.67022,661.32007,-103.090294,638.5109L-103.08992,638.5102C-166.51057,615.70135,-236.41374,648.6228,-259.22336,712.043L-259.22314,712.0423C-282.03302,775.4629,-249.11194,845.36676,-185.69174,868.1762L-185.69165,868.1755C-122.27128,890.9866,-52.368114,858.0649,-29.557673,794.6446L-29.557608,794.644 M-64.177475,782.19324L-64.17694,782.19257C-80.1105,826.49445,-128.9397,849.49084,-173.24068,833.5573L-173.24065,833.5569C-217.54137,817.6238,-240.53802,768.7946,-224.6048,724.4938L-224.60432,724.49335C-208.67151,680.1933,-159.84213,657.19684,-115.54126,673.1295L-115.54085,673.12897C-71.24089,689.0626,-48.24415,737.8923,-64.177475,782.19324 Z"/>
</g>
<g style="fill:rgb(60,70,79); fill-opacity:1.0; stroke-linejoin: miter">
<path d="M-0.18916316,685.5055L-0.18735881,685.5052C-7.2599316,670.4752,-16.672127,656.5361,-28.15392,644.28143L-57.07818,671.3818C-48.45913,680.5809,-41.379116,691.0616,-36.05479,702.37836 Z M-90.32191,603.4349L-90.32192,603.4341C-90.3722,603.41656,-90.421906,603.39905,-90.457855,603.38574L-90.45758,603.385L-90.457855,603.38574L-90.456,603.3858C-106.550545,597.598,-123.00058,594.5524,-139.27634,594.02704L-140.55545,633.64215C-128.37117,634.0354,-116.01898,636.31433,-103.87207,640.6828L-103.871826,640.6823L-103.870445,640.6839L-103.87149,640.6824C-103.90713,640.67053,-103.730255,640.7342,-103.780464,640.7162 Z M-212.1052,609.08435L-212.10353,609.08435C-227.14194,616.14294,-241.08858,625.5431,-253.35284,637.0137L-226.2779,665.96094C-217.07137,657.3497,-206.58546,650.27826,-195.26334,644.9637 Z M-294.25394,699.14984L-294.25372,699.1491C-294.28442,699.2336,-294.3175,699.32605,-294.34793,699.4106L-294.3474,699.40967C-300.11984,715.45825,-303.1651,731.8607,-303.70294,748.0915L-264.08936,749.40497C-263.6861,737.2537,-261.40808,724.93713,-257.05118,712.8242L-257.0496,712.82404C-257.0209,712.74023,-257.012,712.7144,-256.98148,712.6307 Z M-288.7082,820.93414L-288.70642,820.9337C-281.66257,835.9776,-272.2741,849.93274,-260.8143,862.20624L-231.84413,835.15576C-240.44691,825.9424,-247.50964,815.4496,-252.81476,804.1229 Z M-198.71367,903.16077L-198.71323,903.16016C-198.59735,903.203,-198.43906,903.26013,-198.32494,903.3013L-198.32465,903.3004C-182.32275,909.05664,-165.96611,912.1012,-149.78006,912.65234L-148.43307,873.0385C-160.54942,872.6265,-172.83183,870.34827,-184.91083,866.0037L-184.91048,866.0033C-185.0064,865.9694,-185.1094,865.93225,-185.20285,865.89856 Z M-76.92333,897.7198L-76.92182,897.71906C-61.873566,890.6863,-47.91021,881.3102,-35.627598,869.8604L-62.653114,840.8662C-71.87413,849.4607,-82.37347,856.5151,-93.704704,861.81055 Z M5.381162,807.7925L5.381515,807.7919C5.440953,807.6279,5.5064254,807.4462,5.567327,807.2775L5.5677075,807.27686C11.371242,791.1391,14.418304,774.64197,14.931219,758.3218L-24.685871,757.07697C-25.069855,769.2946,-27.349268,781.68225,-31.730247,793.8634L-31.729782,793.8627C-31.775158,793.9882,-31.825584,794.12744,-31.87191,794.25574 Z"/>
</g>
<g style="fill:rgb(0,0,0); fill-opacity:1.0; stroke-linejoin: miter">
<path d="M116.79666,781.7097L116.79718,781.7109L116.79778,781.7098L116.79666,781.7097"/>
</g>
<g style="fill:rgb(0,0,0); fill-opacity:1.0; stroke-linejoin: miter">
<path d="M297.1315,909.1975L297.13193,909.1975L297.1315,909.1975L297.13193,909.1975L297.1315,909.1975 Z"/>
</g>
<g style="fill:rgb(0,0,0); fill-opacity:1.0; stroke-linejoin: miter">
<path d="M297.1315,909.1975L297.13193,909.1975L297.1315,909.1975L297.13193,909.1975L297.1315,909.1975 Z"/>
</g>
<g style="fill:rgb(60,70,79); fill-opacity:1.0; stroke-linejoin: miter">
<path d="M221.20602,912.9425L221.2057,912.9419C181.03558,858.82446,192.3427,782.38806,246.46068,742.2178L246.45996,742.2171C300.57858,702.0471,377.01456,713.3535,417.18506,767.4717L417.18466,767.4709C457.3558,821.5892,446.0495,898.0255,391.93118,938.1962L391.93088,938.1956C337.81308,978.3671,261.37717,967.0605,221.20602,912.9425L221.2057,912.9419 M250.74779,891.01465L250.747,891.0139C278.80783,928.8177,332.20035,936.71576,370.0035,908.6549L370.00308,908.6543C407.8064,880.595,415.70447,827.2019,387.64417,789.3992L387.6434,789.3987C359.584,751.59644,306.19113,743.6986,268.38812,771.75836L268.38757,771.7578C230.58551,799.81885,222.68752,853.2114,250.74779,891.01465 Z"/>
</g>
<g style="fill:rgb(60,70,79); fill-opacity:1.0; stroke-linejoin: miter">
<path d="M161.53952,816.9548L161.53778,816.9546C163.96338,800.52185,168.94376,784.457,176.39252,769.4061L211.91621,786.987C206.32469,798.28564,202.57674,810.3651,200.75163,822.73816 Z M224.09697,712.33057L224.09663,712.32996C224.13982,712.29877,224.18228,712.2674,224.21298,712.2447L224.21248,712.24414L224.21298,712.2447L224.21118,712.24493C237.9452,702.0516,252.81248,694.3805,268.24142,689.1717L280.91852,726.72516C269.36813,730.6245,258.20224,736.37714,247.83698,744.07117L247.8366,744.0707L247.83574,744.0725L247.83621,744.0708C247.8669,744.0492,247.71599,744.16113,247.75885,744.1294 Z M342.3132,682.5311L342.3117,682.53125C358.74866,684.94116,374.8173,689.90765,389.8743,697.34296L372.32397,732.88135C361.02112,727.2997,348.9384,723.5619,336.5635,721.7475 Z M446.99255,745.00146L446.99213,745.0006C447.04584,745.07306,447.10437,745.15155,447.158,745.22345L447.15695,745.223C457.32266,758.9174,464.97986,773.7396,470.1875,789.1216L432.64456,801.8311C428.7457,790.31555,423.00433,779.1836,415.3316,768.8474L415.32996,768.8474C415.2782,768.77563,415.26233,768.7538,415.20883,768.6823 Z M476.89175,863.189L476.89,863.18915C474.49554,879.62683,469.54266,895.70044,462.1204,910.7627L426.56668,893.2427C432.1387,881.93555,435.86652,869.84894,437.6707,857.47253 Z M414.5111,967.9218L414.51062,967.92145C414.41196,967.9959,414.277,968.0964,414.17953,968.16864L414.17902,968.168C400.52475,978.3046,385.74664,985.94806,370.41107,991.1551L357.66922,953.62225C369.14902,949.7249,380.24844,943.99335,390.55554,936.3422L390.55493,936.3415C390.6371,936.2818,390.72485,936.2161,390.8047,936.1568 Z M296.34818,997.923L296.3463,997.9236C279.9076,995.5407,263.82974,990.60126,248.76164,983.1923L266.25085,947.6226C277.56265,953.18463,289.65332,956.9023,302.0316,958.6955 Z M191.56036,935.63043L191.55972,935.62994C191.4555,935.4899,191.34024,935.3349,191.23325,935.1911L191.23262,935.1906C181.0116,921.4196,173.3251,906.50745,168.11609,891.0327L205.68158,878.3877C209.58119,889.9724,215.34445,901.1725,223.06,911.5665L223.0593,911.5663C223.13907,911.67334,223.22755,911.79175,223.30908,911.90137 Z"/>
</g>
<g style="fill:rgb(0,0,0); fill-opacity:1.0; stroke-linejoin: miter">
<path d="M77.36191,942.8713L77.36145,942.8715L77.36104,942.87164L77.36191,942.8713"/>
</g>
<g style="fill:rgb(244,67,54); fill-opacity:1.0; stroke-linejoin: miter">
<path d="M-136.67383,844.60223L-136.67398,844.6027L-136.67398,844.6027L-136.67383,844.60223"/>
</g>
<g style="fill:rgb(229,227,210); fill-opacity:1.0; stroke-linejoin: miter">
<path d="M48.04029,843.61755L48.040245,843.6179L48.040165,843.6188L48.04029,843.61755"/>
</g>
<g style="fill:rgb(0,0,0); fill-opacity:1.0; stroke-linejoin: miter">
<path d="M317.9226,616.3243L317.9233,616.32526L317.92374,616.3242L317.9226,616.3243"/>
</g>
<g style="fill:rgb(0,0,0); fill-opacity:1.0; stroke-linejoin: miter">
<path d="M516.51715,708.9754L516.5177,708.97534L516.51715,708.9754L516.5177,708.97534L516.51715,708.9754 Z"/>
</g>
<g style="fill:rgb(0,0,0); fill-opacity:1.0; stroke-linejoin: miter">
<path d="M516.51715,708.9754L516.5177,708.97534L516.51715,708.9754L516.5177,708.97534L516.51715,708.9754 Z"/>
</g>
<g style="fill:rgb(60,70,79); fill-opacity:1.0; stroke-linejoin: miter">
<path d="M444.22208,726.65045L444.22162,726.64984C394.97742,680.63513,392.3599,603.41125,438.3751,554.16675L438.3743,554.16626C484.39026,504.92206,561.6135,502.3039,610.8583,548.319L610.8577,548.31824C660.1032,594.334,662.72156,671.5576,616.7061,720.8026L616.7057,720.802C570.691,770.0479,493.46738,772.66583,444.22208,726.65045L444.22162,726.64984 M469.3407,699.7692L469.33984,699.7687C503.73947,731.91266,557.6821,730.0838,589.82526,695.6846L589.82477,695.6839C621.9681,661.2856,620.1392,607.3426,585.7404,575.1999L585.7396,575.19965C551.3416,543.05707,497.3987,544.88605,465.25577,579.28455L465.25513,579.2841C433.1131,613.6833,434.9418,667.6259,469.3407,699.7692 Z"/>
</g>
<g style="fill:rgb(60,70,79); fill-opacity:1.0; stroke-linejoin: miter">
<path d="M368.27225,642.9521L368.27042,642.9522C367.70255,626.3511,369.71393,609.6527,374.33582,593.508L412.44128,604.41675C408.9719,616.5363,407.45654,629.0929,407.8853,641.59235 Z M411.0031,528.78687L411.0027,528.78613C411.0395,528.7478,411.07562,528.70917,411.1018,528.6815L411.1012,528.681L411.1018,528.6815L411.10013,528.682C422.77798,516.1856,436.0241,505.96704,450.26526,498.06952L469.4867,532.73236C458.8254,538.6445,448.87546,546.31067,440.0621,555.74243L440.06174,555.7421L440.06116,555.744L440.06134,555.7423C440.08768,555.7156,439.9593,555.85284,439.9958,555.8139 Z M521.9367,478.22168L521.93524,478.22217C538.5377,477.63794,555.23737,479.6349,571.38574,484.24237L560.5099,522.3569C548.3877,518.8979,535.8297,517.3929,523.33044,517.8327 Z M636.1409,520.8566L636.1404,520.8558C636.20636,520.91754,636.27795,520.9841,636.34357,521.04517L636.34247,521.0449C648.80444,532.6889,659.0014,545.8932,666.8894,560.0884L632.24274,579.33984C626.3372,568.7127,618.68823,558.79407,609.28235,550.0057L609.2807,550.00586C609.217,549.94464,609.1973,549.926,609.13196,549.86536 Z M686.7992,631.74426L686.79755,631.74475C687.397,648.345,685.4143,665.0472,680.8206,681.1984L642.6964,670.3551C646.1452,658.23047,647.63947,645.6706,647.18933,633.17126 Z M644.2621,745.98517L644.26154,745.9848C644.178,746.0759,644.06323,746.1989,643.98035,746.2875L643.97974,746.2869C632.3699,758.7128,619.2065,768.8884,605.0568,776.76764L585.77527,742.13654C596.3676,736.23895,606.2558,728.6056,615.0196,719.22614L615.019,719.2255C615.0892,719.152,615.16364,719.07166,615.23145,718.99896 Z M533.4168,796.7392L533.4151,796.7402C516.81573,797.35114,500.11176,795.38226,483.95728,790.8027L494.76743,752.6684C506.89487,756.1064,519.45685,757.5901,531.9561,757.12915 Z M419.13773,754.29816L419.13702,754.2978C419.00937,754.1788,418.86807,754.04694,418.737,753.92487L418.73627,753.92444C406.20615,742.2149,395.9642,728.92755,388.05826,714.6412L422.73865,695.44916C428.65738,706.1442,436.34006,716.1258,445.7984,724.9636L445.7977,724.9635C445.89542,725.0545,446.00375,725.15497,446.10367,725.24817 Z"/>
</g>
<g style="fill:rgb(0,0,0); fill-opacity:0.99607843; stroke-linejoin: miter">
<path d="M915.1288,888.5979L915.12866,888.59827L915.12854,888.5989L915.1288,888.5979"/>
</g>
<g style="fill:rgb(60,70,79); fill-opacity:1.0; stroke-linejoin: miter">
<path d="M1060.4521,739.50305L1060.4514,739.5039C993.2409,744.5126,934.6947,694.08765,929.68585,626.8762L929.68506,626.87646C924.67664,559.66534,975.1015,501.11902,1042.312,496.10944L1042.3113,496.10938C1109.5228,491.0999,1168.0697,541.5244,1173.0789,608.735L1173.0781,608.7357C1178.0884,675.9465,1127.6637,734.4929,1060.4521,739.50305L1060.4514,739.5039 M1057.718,702.8143L1057.717,702.8147C1104.6671,699.31506,1139.89,658.4187,1136.3906,611.4696L1136.3896,611.47046C1132.8914,564.5211,1091.9951,529.298,1045.0465,532.7974L1045.0458,532.7977C998.0979,536.29694,962.87506,577.193,966.3737,624.1418L966.37305,624.14197C969.8727,671.0904,1010.769,706.31354,1057.718,702.8143 Z"/>
</g>
<g style="fill:rgb(60,70,79); fill-opacity:1.0; stroke-linejoin: miter">
<path d="M947.4349,738.5999L947.43384,738.6014C934.84436,727.7653,923.9316,714.9669,915.1959,700.6248L949.0471,680.00604C955.60486,690.77216,963.8088,700.3985,973.28845,708.5565 Z M892.4725,629.79443L892.4717,629.7944C892.46826,629.7411,892.4645,629.6885,892.46155,629.65027L892.461,629.6502L892.46155,629.65027L892.46094,629.6518C891.1907,612.5954,892.6574,595.9306,896.5058,580.10724L935.01904,589.4743C932.1377,601.31995,931.0284,613.83136,931.9879,626.70416L931.9872,626.7046L931.98816,626.70624L931.9871,626.7047C931.9854,626.6671,931.9994,626.8549,931.9953,626.80133 Z M930.50024,513.9626L930.49976,513.96387C941.3249,501.36237,954.11365,490.4395,968.4478,481.69116L989.0952,515.52435C978.3349,522.0913,968.7155,530.30286,960.5656,539.7903 Z M1039.262,458.90637L1039.2611,458.9065C1039.351,458.89948,1039.4487,458.8922,1039.5382,458.88538L1039.5372,458.88586C1056.545,457.61786,1073.1646,459.0722,1088.9475,462.89673L1079.6138,501.4173C1067.7979,498.55487,1055.3207,497.45416,1042.4838,498.41144L1042.4832,498.41272C1042.3947,498.41815,1042.3678,498.41998,1042.2787,498.42682 Z M1155.1224,496.83435L1155.1215,496.83582C1167.7322,507.64807,1178.6666,520.428,1187.4261,534.7539L1153.6107,555.4304C1147.035,544.6762,1138.8145,535.06354,1129.3206,526.92114 Z M1210.272,605.54803L1210.2711,605.54816C1210.2814,605.6715,1210.2941,605.8395,1210.3031,605.96027L1210.3021,605.96027C1211.5671,622.9189,1210.1243,639.4941,1206.3243,655.2376L1167.7948,645.93646C1170.6395,634.15125,1171.7308,621.7072,1170.7767,608.90625L1170.7759,608.9063C1170.7694,608.8049,1170.7609,608.69574,1170.7532,608.5966 Z M1172.4425,721.44275L1172.4419,721.4443C1161.639,734.062,1148.8684,745.0077,1134.5502,753.7794L1113.8438,719.9813C1124.5924,713.3961,1134.1987,705.16693,1142.333,695.6654 Z M1063.7728,776.68634L1063.7722,776.6863C1063.598,776.69977,1063.4054,776.7142,1063.2268,776.7278L1063.226,776.7277C1046.1239,778.0021,1029.4127,776.524,1013.5507,772.65186L1022.9508,734.14606C1034.8257,737.0448,1047.3717,738.16284,1060.2809,737.20074L1060.28,737.2009C1060.4131,737.1911,1060.5608,737.1798,1060.6968,737.1694 Z"/>
</g>
<g style="fill:rgb(0,0,0); fill-opacity:1.0; stroke-linejoin: miter">
<path d="M1008.82996,877.0608L1008.82996,877.0613L1008.8299,877.0619L1008.82996,877.0608"/>
</g>
<g style="fill:rgb(60,70,79); fill-opacity:1.0; stroke-linejoin: miter">
<path d="M908.9026,776.871L908.90265,776.87036C931.71246,713.4504,898.79047,643.5465,835.3703,620.7373L835.3707,620.7365C771.95013,597.9278,702.0469,630.8492,679.2371,694.2695L679.23737,694.26874C656.4274,757.68933,689.34827,827.593,752.7684,850.4025L752.7685,850.4018C816.1888,873.2128,886.09204,840.2914,908.9026,776.871L908.90265,776.87036 M874.28284,764.4197L874.2833,764.4189C858.34985,808.721,809.52045,831.7173,765.2195,815.7836L765.21954,815.78326C720.91895,799.85016,697.92236,751.021,713.85565,706.72015L713.85614,706.71967C729.789,662.41956,778.6184,639.4233,822.9194,655.356L822.91974,655.35547C867.21967,671.28906,890.21625,720.1186,874.28284,764.4197 Z"/>
</g>
<g style="fill:rgb(60,70,79); fill-opacity:1.0; stroke-linejoin: miter">
<path d="M938.2714,667.732L938.2732,667.7316C931.20074,652.7017,921.7886,638.7626,910.30676,626.50775L881.3825,653.6083C890.0014,662.80725,897.0815,673.288,902.40576,684.6048 Z M848.1389,585.6613L848.1389,585.6606C848.08856,585.64307,848.0389,585.62555,848.00287,585.6122L848.0032,585.6115L848.00287,585.6122L848.0047,585.61224C831.9103,579.8244,815.4602,576.7788,799.1845,576.25336L797.9052,615.8685C810.0895,616.26184,822.44165,618.54065,834.5886,622.9091L834.5888,622.9086L834.5902,622.9102L834.5892,622.9087C834.55347,622.8969,834.7304,622.9605,834.6801,622.9425 Z M726.3556,591.3107L726.35724,591.3107C711.3188,598.3693,697.3722,607.7695,685.1078,619.2399L712.18274,648.18726C721.3893,639.57605,731.8751,632.50464,743.1973,627.19006 Z M644.2066,681.3763L644.2068,681.3755C644.176,681.46,644.143,681.5525,644.11255,681.63696L644.1131,681.6361C638.3407,697.6847,635.2953,714.08704,634.7574,730.3178L674.371,731.6313C674.7743,719.48004,677.05237,707.1636,681.40936,695.0507L681.4109,695.0504C681.43964,694.9666,681.44855,694.94086,681.47906,694.8571 Z M649.752,803.1605L649.75385,803.1601C656.7976,818.20386,666.18604,832.15906,677.6459,844.43243L706.6161,817.3821C698.01337,808.16876,690.9506,797.67596,685.6455,786.34924 Z M739.7463,885.3872L739.74677,885.3865C739.8627,885.4293,740.02094,885.48645,740.1351,885.5276L740.1354,885.52686C756.13727,891.28284,772.4939,894.3275,788.68,894.87854L790.0271,855.2648C777.9107,854.8529,765.62836,852.57465,753.5493,848.23016L753.5497,848.2297C753.45374,848.1958,753.35077,848.15857,753.2573,848.1249 Z M861.53674,879.94604L861.53827,879.9453C876.5865,872.91254,890.54987,863.53644,902.8326,852.08673L875.80707,823.09265C866.58606,831.6872,856.0867,838.7415,844.75543,844.03687 Z M943.8415,790.019L943.84186,790.0184C943.9013,789.8544,943.9668,789.6728,944.02765,789.50397L944.0281,789.5033C949.83154,773.36554,952.8787,756.86847,953.3917,740.5483L913.77454,739.3035C913.39056,751.5211,911.111,763.90857,906.73,776.0897L906.73047,776.08905C906.6852,776.21454,906.6347,776.35376,906.5884,776.4821 Z"/>
</g>
<g style="fill:rgb(0,0,0); fill-opacity:1.0; stroke-linejoin: miter">
<path d="M1055.2571,763.93604L1055.2576,763.9372L1055.2582,763.9361L1055.2571,763.93604"/>
</g>
<g style="fill:rgb(229,227,210); fill-opacity:1.0; stroke-linejoin: miter">
<path d="M986.50055,825.84393L986.50055,825.8443L986.5004,825.8451L986.50055,825.84393"/>
</g>
<g style="fill:rgb(248,196,166); fill-opacity:0.99607843; stroke-linejoin: miter">
<path d="M288.2662,709.24255L288.26617,709.2427L288.26617,709.24274L288.26617,709.2427L288.2662,709.24255L288.26617,709.2427L288.26617,709.24274Q288.26617,709.2427,288.2662,709.24255"/>
</g>
<g style="fill:rgb(248,196,166); fill-opacity:0.99607843; stroke-linejoin: miter">
<path d="M230.1566,528.17896L230.15659,528.17914L230.15657,528.1794L230.15659,528.17914L230.1566,528.17896L230.15659,528.17914L230.15657,528.1794Q230.15659,528.17914,230.1566,528.17896"/>
</g>
<g style="fill:rgb(60,70,79); fill-opacity:0.99607843; stroke-linejoin: miter">
<path d="M695.79095,356.2024L705.81726,359.54712L715.84357,362.89185L695.79095,356.2024"/>
</g>
</g>
</svg>