<?xml version='1.0' encoding='utf-8'?>
<svg xmlns="http://www.w3.org/2000/svg" version="1.1" id="Layer_1" x="0px" y="0px" viewBox="0 0 2459.884 1674.318" enable-background="new 0 0 2459.884 1674.318"> <g id="Man_Head_Silhouette"> <g id="Brain_Silhouette"> <g> <path fill="none" d="M1289.742,1204.662c25.208-11.875,40.649-39.767,46.906-63.492c6.676-25.312,6.772-51.981,5.916-80.004 c-20.657,32.762-38.779,67.441-48.823,105.484C1291.3,1175.624,1290.031,1188.59,1289.742,1204.662z"/> <path d="M1391.401,963.121c-5.991,11.86-8.566,25.621-9.521,39.979c15.808-22.567,31.167-44.584,43.933-66.608 C1411.808,938.137,1398.012,950.035,1391.401,963.121z"/> <path d="M1176.701,1225.441c-43.344-23.19-82.382-53.739-116.03-90.8c-20.099-22.491-37.007-47.577-54.695-72.144 c-13.934-19.353-30.911-38.194-39.036-60.858c-4.191-11.749-60.699-117.419-71.185-125.005 c-35.515-25.601-51.698-66.757-51.698-66.757s-62.331,13.185-87.434,10.718c-21.301-2.114-87.218,9.598-161.644-51.996 c-9.417-7.816-58.445-29.263-51.554-61.033c1.054-4.941-1.669-3.258-3.102-15.462l-0.701-6.118 c-11.142-11.432-15.159-15.142-18.92-27.141C407.668,638.03,376.1,592.401,365.887,542.792 c-27.658-29.369-52.689-73.846-32.605-108.842c2.797-4.906,2.888-4.736,0.855-7.241c-12.487-15.523-6.006-40.399,2.91-58.181 c7.525-14.951,8.353-12.345,12.015-23.299c9.581-28.634,27.26-59.496,52.082-74.114c30.106-17.671,86.474-112.02,150.283-103.531 c44.225-41.732,102.691-61.947,177.337-54.656c39.047-14.867,75.409-18.302,119.781-11.486 c45.97-11.022,87.629-9.478,129.788,13.167c35.266-0.916,69.429,2.004,106.229,19.208c9.677,4.518,49.259,8.997,95.684,33.105 c58.991,30.631,70.033,61.149,80.222,70.829c16.82,15.966,21.546,27.594,23.722,36.553c21.856,11.68,40.858,28.777,52.678,44.053 c24.573,31.766,24.642,57.728,25.931,72.721c10.581,6.336,11.773,6.792,17.114,12.274c13.868,14.204,26.286,36.61,32.846,59.237 c2.094,7.241,2.142,7.337,4.984,10.459c38.191,41.969,35.034,173.391,34.612,183.349 c-3.622,85.833-35.899,160.23-121.653,169.558c-6.684,0.726-21.15,0.619-27.649,0.624c3.939,20.52,4.424,14.817,2.91,24.298 c-2.151,13.417-4.456,18.785-10.958,25.422c-3.592,3.669-3.621,3.707-3.938,6.78c-1.796,17.556-20.034,40.663-44.053,55.837 c-18.757,11.851-36.293,18.613-65.739,25.354c-61.103,13.98-52.227,6.008-99.218,5.205c-23.104-0.403-16.245,0.297-30.896-2.785 c-19.615-4.111-24.176-6.054-24.557-5.061c-1.499,3.888,1.836,10.33,3.128,13.855c2.981,8.135,7.19,15.652,8.765,24.195 c1.445,7.837,3.157,15.584,5.44,23.224c4.339,14.521,10.363,28.51,17.749,41.739c14.941,26.763,35.253,50.168,57.702,70.892 c23.032,21.263,48.529,39.84,76.186,54.637c35.186,18.824,63.329,24.595,86.029,17.641c2.819-0.864,5.533-1.921,8.142-3.15 c0.29-16.072,1.558-29.038,3.998-38.012c10.044-38.043,28.167-72.723,48.823-105.484c-0.138-4.526-0.299-9.084-0.463-13.681 c-0.127-3.524-0.253-7.045-0.367-10.559c-0.996-30.509-0.738-62.732,13.966-91.84c15.265-30.219,51.413-56.346,89.208-46.845 c0.197-0.483,0.401-0.965,0.595-1.449c172.155-430.179-38.202-804.688-513.983-854.383 C511.405-1.473,277.725,237.083,244.882,483.54c-3.481,26.388,0,52.776,12.442,80.161 c-57.715,90.119-190.57,223.055-202.01,286.786c-6.968,38.337,38.311,51.78,60.207,65.224c20.899,6.971,43.785,1.99,57.715,18.92 c9.951,12.448-3.481,33.359-6.47,48.794c-0.498,25.392-30.346,37.84-27.363,61.24c2.989,19.916,19.903,27.883,35.328,40.33 c16.421,12.944-41.798,37.839-22.892,60.743c19.405,22.404,47.77,48.295,37.813,80.16 c-14.429,49.291-42.296,100.573-19.405,138.911c22.892,37.84,54.732,60.244,103.991,70.2c60.671,0,121.654,0.931,182.7,1.328 c33.999,0.221,64.926,19.568,80.147,49.97c24.314,48.561,34.144,98.875,30.219,150.852h781.666 c-24.47-115.003-52.527-285.276-58.245-390.361c-9.244,2.571-18.845,3.875-28.857,3.875 C1236.365,1250.673,1208.225,1242.307,1176.701,1225.441z"/> <path d="M1336.647,1141.17c-6.257,23.726-21.697,51.618-46.906,63.492c-0.222,12.342,0.134,26.518,0.983,42.136 c0.865-0.24,1.731-0.477,2.589-0.74c20.344-6.231,38.907-19.234,53.683-37.604c12.919-16.062,22.715-35.801,28.328-57.084 c9.263-35.121,7.984-70.807,6.748-105.318c-0.124-3.481-0.249-6.96-0.362-10.432c-0.353-10.814-0.54-21.832,0.17-32.521 c-13.211,18.861-26.734,38.107-39.318,58.065C1343.42,1089.189,1343.323,1115.858,1336.647,1141.17z"/> <path d="M2404.536,510.924l-4.229-4.229c-1.006-1.007-2.639-1.007-3.646,0l-94.629,94.63l-65.913-65.913l94.629-94.629 c1.007-1.007,1.007-2.639,0-3.646l-4.229-4.229c-1.007-1.007-2.639-1.007-3.646,0l-95.005,95.005l-34.715-34.715 c-2.412-2.411-6.321-2.411-8.732,0l-10.225,10.225c-2.412,2.411-2.412,6.321,0,8.732l10.8,10.8 c5.833,5.833-2.042,14.291-2.042,14.291s-20.124,20.124-34.998,34.998c-14.875,14.874-12.541,46.956-12.541,46.956 c2.625,13.124-8.458,23.04-8.458,23.04c-15.969,15.969-27.12,14.629-31.22,13.288c-1.159-0.379-2.429-0.088-3.311,0.752 l-10.675,10.167l9.479,9.479c2.658,2.658,2.658,6.967,0,9.624l-98.65,98.651c-6.161,6.161-6.161,16.15,0,22.311l1.239,1.24 c2.335,2.336,2.335,6.122,0,8.458l-68.07,68.071c-8.857,7.978-16.421,18.029-22.396,29.945 c-9.104,18.154-14.39,40.595-14.88,63.188c-0.366,16.831,1.195,33.35,2.705,49.323c1.965,20.795,3.821,40.437,1.492,59.461 c-3.483,28.455-22.256,58.633-47.642,59.881c-15.216,0.743-32.273-9.563-43.418-26.271 c-11.597-17.384-16.996-39.26-21.941-62.027c-9.292-42.779-16.9-86.472-22.612-129.863l-0.413-3.147 c-3.266-24.949-6.967-53.228-21.313-77.82c-8.347-14.309-20.709-26.494-34.81-34.31c-16.521-9.158-34.048-11.81-50.68-7.669 c-19.652,4.891-35.641,18.354-46.235,38.933c-8.146,15.819-12.765,35.493-13.007,55.396 c-0.477,39.314,10.213,76.577,20.551,112.614c1.929,6.724,3.923,13.676,5.787,20.453c10.154,36.938,19.003,79.785,7.636,117.503 c-9.467,31.413-40.467,62.715-73.996,58.533c-31.235-3.902-52.378-35.46-58.803-63.129c-8.027-34.567-0.942-73.087,5.308-107.071 c4.137-22.489,8.825-47.98,4.072-73.756c-5.877-31.863-26.877-57.563-53.499-65.471c-0.917-0.272-1.833-0.503-2.748-0.733 c-5.228,12.825-11.724,25.54-19.092,38.251c3.507-0.412,7.026-0.192,10.45,0.826c14.041,4.171,22.951,20.273,25.553,34.382 c3.417,18.529-0.392,39.238-4.075,59.265c-6.956,37.819-14.84,80.686-4.931,123.355c5.23,22.524,16.412,44.022,31.487,60.533 c17.243,18.888,38.447,30.382,61.319,33.239c25.564,3.198,51.956-4.942,74.309-22.913c20.193-16.234,35.445-38.882,42.945-63.771 c14.297-47.439,4.299-97.214-7.366-139.647c-1.922-6.991-3.947-14.052-5.906-20.88c-9.98-34.793-19.408-67.655-19.002-101.098 c0.286-23.577,9.453-51.157,28.905-55.999c15.698-3.907,32.982,9.099,41.277,23.317c10.282,17.627,13.158,39.598,16.203,62.857 l0.416,3.177c5.856,44.485,13.656,89.277,23.183,133.133c5.562,25.607,12.287,52.548,27.754,75.734 c19.079,28.602,49.195,45.474,78.656,44.024c22.813-1.121,44.181-12.919,60.164-33.222c13.484-17.127,22.44-39.057,25.218-61.75 c2.856-23.33,0.706-46.082-1.373-68.084c-1.467-15.521-2.853-30.182-2.537-44.691c0.643-29.56,11.786-53.671,35.976-77.861 c24.189-24.19,56.796-56.796,56.796-56.796c2.335-2.335,6.122-2.336,8.458,0l1.239,1.24c6.161,6.161,16.15,6.161,22.311,0 l98.651-98.651c2.658-2.658,6.966-2.658,9.625,0l9.479,9.479l10.167-10.675c0.841-0.883,1.131-2.152,0.752-3.311 c-1.341-4.1-2.681-15.251,13.288-31.22c0,0,9.916-11.083,23.041-8.458c0,0,32.082,2.333,46.956-12.541 s34.998-34.998,34.998-34.998s8.458-7.875,14.291-2.042l10.8,10.8c2.411,2.411,6.321,2.411,8.732,0l10.225-10.225 c2.411-2.411,2.411-6.321,0-8.732l-34.715-34.715l95.005-95.005C2405.543,513.563,2405.543,511.93,2404.536,510.924z"/> <path fill="#FFFFFF" d="M1289.742,1204.662c-2.609,1.229-5.323,2.287-8.142,3.15c-22.7,6.954-50.844,1.184-86.029-17.641 c-27.657-14.797-53.154-33.373-76.186-54.637c-22.449-20.724-42.761-44.129-57.702-70.892 c-7.386-13.229-13.409-27.218-17.749-41.739c-2.283-7.64-3.996-15.387-5.44-23.224c-1.575-8.542-5.784-16.06-8.765-24.195 c-1.292-3.525-4.627-9.967-3.128-13.855c0.381-0.992,4.942,0.95,24.557,5.061c14.651,3.083,7.792,2.382,30.896,2.785 c46.991,0.802,38.116,8.775,99.218-5.205c29.446-6.742,46.982-13.503,65.739-25.354c24.02-15.174,42.257-38.281,44.053-55.837 c0.317-3.073,0.346-3.112,3.938-6.78c6.502-6.636,8.807-12.005,10.958-25.422c1.514-9.481,1.03-3.778-2.91-24.298 c6.499-0.006,20.965,0.102,27.649-0.624c85.754-9.328,118.031-83.725,121.653-169.558c0.421-9.958,3.579-141.38-34.612-183.349 c-2.843-3.121-2.891-3.217-4.984-10.459c-6.56-22.627-18.978-45.033-32.846-59.237c-5.341-5.482-6.533-5.938-17.114-12.274 c-1.289-14.993-1.357-40.955-25.931-72.721c-11.819-15.276-30.821-32.373-52.678-44.053c-2.176-8.958-6.902-20.586-23.722-36.553 c-10.189-9.68-21.23-40.198-80.222-70.829c-46.425-24.108-86.007-28.587-95.684-33.105 c-36.8-17.204-70.964-20.124-106.229-19.208c-42.159-22.645-83.817-24.189-129.788-13.167 c-44.372-6.816-80.733-3.38-119.781,11.486c-74.646-7.291-133.112,12.924-177.337,54.656 c-63.808-8.489-120.176,85.859-150.283,103.531c-24.822,14.617-42.501,45.479-52.082,74.114 c-3.661,10.954-4.49,8.348-12.015,23.299c-8.916,17.782-15.397,42.658-2.91,58.181c2.033,2.506,1.943,2.336-0.855,7.241 c-20.083,34.995,4.947,79.472,32.605,108.842c10.213,49.609,41.781,95.238,154.815,116.054 c3.761,11.999,7.778,15.708,18.92,27.141l0.701,6.118c1.433,12.204,4.156,10.521,3.102,15.462 c-6.891,31.77,42.137,53.217,51.554,61.033c74.426,61.594,140.343,49.882,161.644,51.996 c25.104,2.467,87.434-10.718,87.434-10.718s16.183,41.156,51.698,66.757c10.486,7.586,66.993,113.256,71.185,125.005 c8.125,22.664,25.102,41.505,39.036,60.858c17.688,24.567,34.596,49.652,54.695,72.144c33.648,37.061,72.687,67.609,116.03,90.8 c31.524,16.866,59.664,25.232,85.167,25.232c10.012,0,19.613-1.305,28.857-3.875 C1289.875,1231.18,1289.519,1217.004,1289.742,1204.662z"/> <path fill="#FFFFFF" d="M1355.698,945.086c-14.704,29.107-14.962,61.331-13.966,91.84c0.114,3.514,0.24,7.034,0.367,10.559 c0.165,4.597,0.325,9.155,0.463,13.681c12.583-19.958,26.106-39.204,39.318-58.065c0.954-14.358,3.529-28.12,9.521-39.979 c6.61-13.086,20.407-24.984,34.413-26.629c7.368-12.711,13.865-25.427,19.092-38.251 C1407.111,888.739,1370.963,914.866,1355.698,945.086z"/> </g> </g> </g> </svg>